<?xml version="1.0" standalone="no"?>
<!DOCTYPE svg PUBLIC "-//W3C//DTD SVG 20010904//EN"
 "http://www.w3.org/TR/2001/REC-SVG-20010904/DTD/svg10.dtd">
<svg version="1.0" xmlns="http://www.w3.org/2000/svg"
 width="300.000000pt" height="400.000000pt" viewBox="0 0 300.000000 400.000000"
 preserveAspectRatio="xMidYMid meet">
<metadata>
Created by potrace 1.10, written by Peter Selinger 2001-2011
</metadata>
<g transform="translate(0.000000,400.000000) scale(0.100000,-0.100000)"
fill="#000000" stroke="none">
<path d="M1722 3639 c7 -12 19 -31 25 -43 12 -20 13 -20 13 -1 -1 19 -32 65
-44 65 -4 0 -1 -10 6 -21z"/>
<path d="M1454 3623 c3 -18 36 -28 36 -11 0 7 4 7 13 1 16 -13 57 -23 57 -15
0 8 -79 42 -97 42 -6 0 -10 -8 -9 -17z"/>
<path d="M1864 3631 c8 -12 -32 -61 -49 -61 -7 0 -16 6 -18 13 -3 7 -6 5 -6
-5 -1 -11 6 -18 18 -18 23 0 73 39 66 51 -4 5 2 9 12 9 15 0 16 2 3 10 -19 12
-33 13 -26 1z"/>
<path d="M1590 3621 c0 -6 9 -11 19 -11 11 0 23 -4 26 -10 8 -12 35 -13 35 -1
0 5 -11 12 -24 15 -13 3 -31 9 -40 12 -9 3 -16 1 -16 -5z"/>
<path d="M1272 3604 c-13 -9 -30 -13 -39 -10 -8 4 -22 1 -29 -5 -8 -6 -23 -9
-34 -6 -17 4 -18 2 -10 -13 14 -26 30 -34 30 -17 0 20 20 26 70 21 23 -3 47
-1 53 4 14 11 66 10 85 -1 8 -5 12 -2 12 9 0 14 3 14 15 4 15 -12 35 -7 22 6
-10 11 -81 23 -87 15 -8 -12 -70 -22 -70 -11 0 4 8 11 18 13 13 4 13 5 2 6 -9
0 -26 -6 -38 -15z"/>
<path d="M1050 3600 c-71 -7 -148 -28 -107 -29 9 -1 17 -7 17 -15 0 -9 -17
-16 -45 -20 -25 -4 -45 -11 -45 -16 0 -5 16 -4 35 1 19 6 40 7 45 4 6 -4 12 0
15 7 7 17 162 18 173 1 4 -6 34 -23 67 -38 33 -15 64 -30 69 -33 5 -3 6 -1 3
4 -3 6 -30 21 -59 34 -29 14 -60 33 -68 43 -18 20 -82 29 -134 17 -25 -5 -39
-4 -46 6 -15 18 43 29 115 21 41 -4 55 -2 59 9 3 8 0 13 -7 12 -7 0 -46 -4
-87 -8z"/>
<path d="M2055 3572 c-6 -4 -11 -19 -13 -33 -2 -21 1 -27 15 -25 25 2 29 -38
7 -72 l-17 -27 27 24 c31 29 36 76 7 84 -14 3 -17 11 -14 31 6 28 4 30 -12 18z"/>
<path d="M860 3554 c-30 -8 -66 -16 -79 -18 -29 -6 -40 -16 -17 -16 11 0 14
-4 9 -12 -4 -7 5 -5 20 5 15 9 27 13 27 7 0 -5 15 -1 33 10 17 11 40 20 50 20
9 0 17 5 17 10 0 6 -1 10 -2 9 -2 -1 -28 -7 -58 -15z"/>
<path d="M1967 3503 c-4 -3 -7 -16 -7 -27 0 -15 -3 -17 -9 -8 -5 9 -14 -4 -28
-40 -18 -46 -24 -53 -47 -52 -14 1 -26 -3 -26 -8 0 -5 -4 -6 -10 -3 -5 3 -10
1 -10 -4 0 -6 8 -11 19 -11 24 0 83 25 76 32 -3 3 -1 16 4 29 9 21 10 22 11 4
1 -19 1 -19 11 -2 6 9 14 15 19 12 5 -3 8 14 7 40 -1 25 -2 45 -3 45 0 0 -4
-3 -7 -7z"/>
<path d="M810 3490 c0 -5 -6 -10 -13 -10 -7 0 -37 -16 -67 -35 -30 -19 -65
-35 -77 -35 -13 0 -23 -4 -23 -10 0 -5 6 -8 13 -6 6 3 25 7 42 11 29 6 29 6
11 -14 -14 -15 -28 -19 -67 -17 -41 3 -47 1 -37 -11 6 -8 17 -12 24 -9 7 3 16
1 19 -4 9 -15 24 -12 42 10 10 11 23 20 30 20 7 0 12 3 12 8 -4 21 4 32 41 57
22 15 45 25 53 22 8 -3 13 3 13 14 0 11 -4 19 -8 19 -4 0 -8 -4 -8 -10z"/>
<path d="M2003 3487 c11 -30 -13 -106 -34 -112 -10 -4 -19 -11 -19 -16 0 -5
-8 -9 -19 -9 -13 0 -18 -7 -17 -22 1 -13 -2 -29 -7 -35 -6 -8 -5 -24 3 -43 7
-16 10 -41 8 -55 -3 -13 -1 -22 4 -19 5 3 8 38 6 77 -2 40 0 73 5 74 4 2 23
17 42 34 39 36 59 110 35 132 -10 10 -12 8 -7 -6z"/>
<path d="M1342 3478 c25 -7 43 -6 55 1 14 8 6 10 -37 10 -55 -1 -55 -1 -18
-11z"/>
<path d="M960 3475 c-9 -66 -9 -65 16 -65 15 0 23 4 19 10 -4 6 -11 7 -17 4
-7 -5 -9 -2 -6 7 3 8 2 23 -3 34 -4 11 -8 16 -9 10z"/>
<path d="M607 3463 c-10 -9 -9 -63 1 -63 4 0 8 16 9 35 1 37 0 39 -10 28z"/>
<path d="M1500 3464 c0 -5 -30 -9 -67 -9 -50 0 -67 -4 -70 -15 -4 -12 -3 -12
5 -2 11 17 118 14 180 -4 23 -7 42 -10 42 -6 0 4 5 0 10 -8 8 -12 10 -10 10 9
0 20 -4 22 -24 17 -14 -3 -28 -1 -31 4 -4 6 -11 8 -16 4 -5 -3 -16 0 -24 6 -8
7 -15 9 -15 4z"/>
<path d="M1638 3441 c-26 -25 -22 -36 12 -39 20 -2 30 2 30 12 0 8 3 23 6 33
5 17 5 17 -9 1 -17 -22 -28 -23 -21 -3 8 19 3 18 -18 -4z"/>
<path d="M1795 3418 c2 -21 0 -38 -5 -38 -6 0 -10 -9 -10 -20 0 -11 4 -20 10
-20 15 0 24 69 12 93 -9 19 -10 17 -7 -15z"/>
<path d="M1697 3427 c-9 -24 -1 -38 18 -31 8 4 17 0 20 -8 9 -22 33 -18 27 4
-3 11 -10 17 -18 14 -8 -3 -14 -1 -14 5 0 6 -4 8 -9 4 -5 -3 -11 3 -13 12 -3
17 -4 17 -11 0z"/>
<path d="M2080 3407 c-14 -42 -6 -44 17 -4 15 25 17 34 7 34 -7 0 -18 -14 -24
-30z"/>
<path d="M772 3374 c-20 -19 -28 -31 -17 -26 22 11 73 62 62 62 -4 0 -24 -16
-45 -36z"/>
<path d="M1460 3371 c0 -5 9 -11 21 -14 33 -9 12 -27 -31 -27 -21 0 -42 -4
-45 -10 -8 -14 52 -11 93 4 32 11 33 12 15 27 -23 20 -53 31 -53 20z"/>
<path d="M1636 3354 c-9 -8 -16 -13 -16 -9 0 4 -8 -1 -17 -11 -11 -11 -18 -35
-19 -61 -2 -64 10 -45 15 23 1 13 22 23 61 31 23 4 21 1 -14 -30 -32 -29 -37
-38 -27 -53 6 -11 11 -13 11 -6 0 18 60 82 77 82 8 0 13 11 12 28 -1 16 -3 20
-6 10 -3 -13 -14 -17 -38 -16 -31 1 -32 3 -17 14 9 7 12 14 5 14 -6 0 -19 -7
-27 -16z"/>
<path d="M576 3319 c-11 -11 -25 -19 -33 -19 -16 0 -17 -17 -2 -22 7 -2 5 -9
-5 -17 -14 -12 -16 -12 -10 4 5 12 3 16 -7 13 -7 -2 -17 -22 -21 -43 -5 -22
-14 -46 -22 -54 -7 -9 -17 -23 -21 -31 -7 -12 -6 -13 7 -3 8 7 19 9 23 5 5 -4
6 -2 3 3 -3 6 3 19 13 29 11 11 19 14 19 8 0 -7 5 -12 11 -12 8 0 8 4 2 13
-14 17 -24 47 -15 44 4 -1 20 8 36 21 16 12 23 22 16 22 -8 0 -4 10 10 25 28
29 24 41 -4 14z"/>
<path d="M1180 3330 c0 -5 9 -15 21 -23 15 -11 17 -16 7 -20 -7 -2 -2 -5 12
-5 14 0 55 -3 93 -7 59 -7 67 -6 67 9 0 14 -4 15 -21 6 -11 -6 -30 -10 -42 -7
-22 3 -22 4 3 14 22 10 23 12 8 18 -10 4 -15 11 -12 16 3 5 -2 6 -11 2 -12 -4
-13 -8 -5 -13 16 -10 4 -30 -18 -30 -9 0 -36 11 -59 25 -24 13 -43 20 -43 15z"/>
<path d="M2172 3308 c20 -19 40 -47 43 -64 4 -16 13 -48 21 -72 8 -23 14 -56
14 -72 0 -16 4 -31 9 -34 12 -8 3 66 -15 129 -26 86 -42 114 -76 131 l-32 17
36 -35z"/>
<path d="M1847 3294 c-11 -14 -17 -34 -14 -44 4 -14 0 -18 -14 -15 -11 2 -19
0 -19 -4 0 -4 -10 -18 -21 -30 -17 -18 -23 -20 -30 -9 -7 10 -9 10 -9 0 0 -7
-11 -24 -25 -37 -16 -17 -20 -25 -10 -25 8 0 15 4 15 8 0 4 20 21 45 36 25 16
45 33 45 37 0 5 9 9 21 9 18 0 20 4 15 28 -5 23 -4 25 6 11 11 -14 15 -14 26
-3 19 20 15 39 -5 23 -15 -13 -16 -11 -9 14 8 33 6 33 -17 1z"/>
<path d="M1740 3284 c-14 -37 -13 -39 15 -13 28 28 31 39 10 39 -9 0 -20 -12
-25 -26z"/>
<path d="M1707 3270 c-10 -13 -12 -20 -5 -20 9 0 8 -4 -1 -12 -11 -10 -14 -10
-18 0 -3 6 -10 12 -15 12 -6 0 -8 -3 -5 -7 4 -3 -1 -16 -10 -27 -17 -20 -17
-20 1 -6 10 8 28 14 39 15 16 0 23 8 28 33 3 17 6 32 5 32 -1 0 -9 -9 -19 -20z"/>
<path d="M1949 3268 c-1 -2 -3 -24 -5 -49 -3 -41 0 -47 25 -62 27 -16 41 -14
41 5 0 5 -4 7 -9 3 -11 -6 -41 21 -41 37 0 6 9 3 20 -7 11 -10 23 -15 26 -12
7 7 -35 46 -49 47 -5 0 -5 9 -2 20 3 11 4 20 1 20 -3 0 -7 -1 -7 -2z"/>
<path d="M1493 3218 c-2 -41 -17 -62 -38 -51 -5 3 -4 0 2 -7 10 -11 16 -10 32
4 11 10 18 23 15 30 -3 7 0 25 5 39 8 20 7 27 -2 27 -8 0 -13 -16 -14 -42z"/>
<path d="M1450 3221 c-7 -11 -16 -18 -20 -16 -3 2 -12 0 -19 -4 -9 -6 -5 -10
12 -13 31 -6 42 0 51 30 9 27 -5 29 -24 3z"/>
<path d="M1869 3210 c10 -6 10 -12 2 -29 -7 -12 -9 -27 -5 -33 4 -6 3 -8 -2
-5 -6 3 -16 2 -24 -4 -12 -7 -12 -9 -1 -9 11 0 11 -3 1 -15 -6 -8 -9 -19 -5
-25 10 -16 -22 -60 -39 -54 -16 6 -116 -78 -116 -98 0 -8 18 6 72 53 17 15 43
29 58 32 27 6 40 30 46 81 1 10 7 21 13 26 7 4 14 20 15 36 2 16 9 28 15 27 6
-2 11 3 11 10 0 6 -12 13 -27 14 -16 0 -21 -2 -14 -7z"/>
<path d="M1355 3180 c-3 -5 -14 -10 -23 -10 -11 0 -18 -8 -18 -19 0 -16 3 -18
16 -8 8 7 17 15 20 18 3 3 14 11 25 17 17 10 17 11 3 12 -9 0 -20 -4 -23 -10z"/>
<path d="M1420 3169 c0 -7 -3 -10 -6 -6 -8 8 -44 -25 -44 -40 0 -9 6 -7 18 5
10 9 27 22 37 28 13 7 15 13 7 18 -7 4 -12 2 -12 -5z"/>
<path d="M2076 3154 c-9 -25 -7 -34 7 -28 9 3 21 -11 32 -37 11 -23 21 -37 23
-31 2 7 -4 22 -12 34 -9 12 -16 30 -16 39 0 9 -6 22 -14 28 -11 9 -15 8 -20
-5z"/>
<path d="M2161 3114 c16 -66 27 -139 22 -147 -6 -10 22 -37 38 -37 8 0 7 5 -4
13 -9 6 -19 31 -22 55 -7 57 -26 135 -36 146 -4 5 -3 -9 2 -30z"/>
<path d="M465 3115 c-3 -14 -7 -35 -10 -48 -3 -15 0 -24 8 -24 8 0 12 17 12
49 0 54 -2 59 -10 23z"/>
<path d="M1523 3116 c-13 -12 -23 -28 -23 -36 0 -7 -3 -10 -7 -7 -3 4 -12 2
-20 -5 -21 -17 -28 0 -9 21 10 10 14 21 9 24 -5 3 -16 -8 -25 -24 -10 -16 -13
-29 -8 -29 20 0 9 -19 -12 -22 -34 -5 -36 -30 -2 -26 20 2 33 12 43 30 7 15
16 26 20 25 9 -3 63 54 59 63 -2 4 -13 -3 -25 -14z"/>
<path d="M660 3115 c0 -8 -9 -24 -19 -34 -23 -23 -35 -57 -23 -64 4 -3 9 4 9
15 1 12 7 26 14 32 9 8 11 7 6 -5 -3 -9 0 -16 9 -16 17 0 18 9 2 25 -9 9 -9
12 3 12 8 0 15 11 15 25 1 14 -2 25 -7 25 -5 0 -9 -7 -9 -15z"/>
<path d="M1286 3086 c-5 -19 -2 -36 9 -53 22 -33 31 -22 12 15 -14 28 -13 31
7 41 11 7 13 9 4 7 -9 -3 -18 0 -21 7 -2 7 -7 -1 -11 -17z"/>
<path d="M396 3063 c2 -21 9 -42 14 -47 6 -6 5 -16 -1 -28 -6 -11 -8 -22 -6
-25 3 -2 8 5 12 16 3 12 13 21 21 21 11 0 12 -4 4 -19 -16 -30 -12 -38 6 -13
12 18 13 26 4 37 -7 8 -16 12 -21 10 -7 -5 -26 61 -21 78 1 4 -2 7 -8 7 -5 0
-7 -17 -4 -37z"/>
<path d="M1593 3077 c-18 -12 -33 -26 -33 -30 0 -10 57 23 72 41 16 18 -3 13
-39 -11z"/>
<path d="M579 3038 c-7 -18 -14 -36 -17 -40 -2 -5 0 -8 5 -8 10 0 37 69 30 76
-3 3 -11 -10 -18 -28z"/>
<path d="M1862 3058 c-7 -7 -12 -16 -12 -21 0 -4 -12 -23 -26 -42 -22 -29 -23
-33 -6 -29 10 3 24 22 32 42 7 20 18 40 24 44 6 4 8 9 5 12 -3 3 -11 0 -17 -6z"/>
<path d="M1890 3048 c1 -7 16 -20 35 -29 19 -9 32 -12 29 -8 -3 5 0 9 6 9 6 0
13 -7 17 -16 4 -12 8 -13 13 -3 6 8 13 3 24 -17 9 -18 15 -23 16 -13 0 9 -9
27 -20 40 -12 15 -19 19 -20 10 0 -11 -3 -11 -15 -1 -8 6 -18 9 -23 6 -5 -3
-21 4 -36 15 -18 14 -26 16 -26 7z"/>
<path d="M2256 3032 c-4 -10 -4 -26 0 -35 6 -18 34 -31 34 -17 0 6 -4 10 -8
10 -4 0 -9 12 -10 27 -3 34 -9 40 -16 15z"/>
<path d="M1606 3023 c1 -6 0 -14 -4 -18 -4 -4 -7 -12 -7 -18 0 -7 -12 -13 -28
-15 -15 -2 -32 -13 -38 -25 -12 -22 -12 -22 10 -3 12 11 21 14 21 7 0 -6 10
-15 23 -20 21 -8 20 -9 -10 -15 -18 -4 -37 -5 -43 -1 -5 3 -10 2 -10 -4 0 -5
-12 -14 -27 -19 -24 -9 -25 -11 -6 -11 12 -1 27 -3 35 -4 7 -2 10 -2 6 0 -15
8 -8 21 9 19 10 -2 21 -14 25 -27 7 -22 7 -22 4 4 -2 15 0 29 4 32 4 2 7 -1 7
-8 1 -37 16 -57 43 -57 9 0 7 5 -8 16 -12 8 -22 24 -22 34 0 22 49 59 70 52
11 -3 12 -1 4 7 -8 9 -17 9 -37 0 -14 -6 -33 -9 -42 -5 -15 5 -14 9 6 26 13
11 20 19 15 20 -5 0 -1 10 10 22 10 12 14 18 7 15 -6 -4 -13 -4 -16 0 -2 5 -3
3 -1 -4z"/>
<path d="M657 3023 c-4 -7 -19 -74 -21 -95 -1 -3 -4 -10 -8 -14 -5 -4 -8 -14
-7 -23 0 -13 13 7 24 39 1 3 4 12 7 20 15 39 19 97 5 73z"/>
<path d="M2058 2998 c15 -15 16 -31 0 -22 -7 4 -8 3 -4 -5 5 -7 9 -24 11 -38
1 -15 10 -32 19 -39 11 -7 21 -36 26 -74 11 -81 18 -86 16 -11 -1 40 -8 66
-19 79 -9 10 -17 28 -17 39 0 31 -21 83 -33 83 -7 0 -7 -4 1 -12z"/>
<path d="M1449 2995 c-3 -2 -32 -7 -64 -10 -46 -4 -66 -12 -85 -30 -13 -14
-19 -25 -12 -25 6 0 12 5 12 10 0 6 5 10 10 10 6 0 8 -12 4 -27 l-6 -28 15 25
c7 14 19 24 27 22 7 -2 10 3 7 11 -3 9 4 13 22 12 24 0 81 21 81 31 0 5 -5 5
-11 -1z"/>
<path d="M1926 2993 c-11 -11 -6 -24 7 -17 6 5 4 -3 -5 -16 -9 -14 -22 -24
-28 -22 -7 1 -10 -3 -8 -10 3 -9 20 -12 50 -10 40 3 46 0 57 -24 6 -15 14 -24
18 -21 3 4 -2 18 -12 33 -14 21 -23 25 -51 22 -34 -4 -47 8 -19 18 8 4 15 14
15 24 0 20 -13 33 -24 23z"/>
<path d="M484 2966 c-5 -13 -3 -21 4 -24 18 -6 15 -25 -8 -49 -15 -17 -16 -22
-5 -27 26 -9 40 40 26 89 -8 27 -9 28 -17 11z"/>
<path d="M1245 2964 c-8 -9 -12 -20 -9 -26 4 -7 9 -6 14 2 5 9 9 9 11 1 2 -6
9 -3 16 8 16 25 -9 37 -32 15z"/>
<path d="M1420 2955 c-40 -14 -51 -32 -18 -30 12 1 24 7 26 14 3 9 7 9 18 0
11 -9 18 -8 29 1 13 11 13 15 3 21 -15 10 -13 10 -58 -6z"/>
<path d="M2246 2955 c-3 -8 -1 -15 4 -15 5 0 19 -17 30 -37 23 -43 17 -7 -7
40 -16 31 -19 33 -27 12z"/>
<path d="M1794 2935 c-15 -13 -25 -27 -22 -31 7 -6 20 4 47 39 19 24 9 21 -25
-8z"/>
<path d="M2145 2920 c-3 -6 -4 -26 -1 -46 4 -24 3 -33 -5 -29 -12 8 10 -32 30
-54 11 -12 11 -16 -3 -26 -25 -19 -7 -26 20 -8 l24 15 -14 -27 c-8 -15 -28
-36 -45 -46 -31 -19 -33 -22 -35 -71 -2 -25 5 -32 26 -29 4 0 5 -18 2 -42 -5
-44 -5 -89 -1 -172 2 -27 -1 -55 -6 -62 -4 -6 -3 -14 3 -18 5 -3 10 -17 10
-30 0 -13 11 -32 25 -43 22 -18 24 -25 19 -66 -6 -37 -4 -46 7 -44 17 4 29 18
29 37 0 11 -4 9 -15 -5 -22 -29 -18 -13 15 60 17 36 36 67 43 67 41 5 53 2 63
-19 l10 -22 29 30 c23 24 30 41 33 89 3 36 0 61 -7 65 -7 5 -11 -9 -11 -44 0
-65 -26 -116 -50 -97 -8 7 -27 18 -42 25 -23 9 -31 8 -53 -10 -17 -13 -23 -23
-16 -28 13 -7 4 -40 -10 -40 -4 0 -6 7 -3 15 4 8 1 15 -5 15 -6 0 -11 -7 -11
-16 0 -8 -4 -13 -8 -10 -5 3 -8 55 -6 116 2 115 -2 136 -12 59 -9 -65 -17 -63
-12 3 3 31 1 55 -4 52 -4 -3 -8 0 -8 5 0 6 4 11 8 11 5 0 7 27 5 60 -2 33 1
68 6 78 6 11 6 24 0 33 -5 8 -9 9 -9 2 0 -6 -9 -9 -20 -6 -16 4 -18 9 -9 24 5
10 18 19 28 19 10 0 24 12 31 26 9 17 20 24 32 21 10 -3 18 -1 18 4 0 5 -5 9
-10 9 -6 0 -9 10 -7 23 2 12 2 17 0 10 -5 -13 -34 -6 -45 11 -7 11 -23 115
-20 129 3 10 -6 9 -13 -3z"/>
<path d="M990 2912 c0 -5 -9 -12 -20 -15 -21 -5 -29 -47 -10 -47 6 0 10 8 8
18 -2 11 3 17 14 16 19 -2 32 22 18 31 -6 4 -10 2 -10 -3z"/>
<path d="M2240 2899 c7 -11 9 -23 6 -26 -7 -7 13 -33 25 -33 5 0 4 12 -2 28
-6 15 -10 28 -10 30 4 13 -2 22 -14 22 -13 0 -14 -4 -5 -21z"/>
<path d="M371 2896 c-1 -12 -6 -16 -16 -12 -17 6 -20 -20 -5 -44 8 -12 10 -11
10 7 0 12 5 23 11 25 6 2 9 13 6 23 -4 18 -5 18 -6 1z"/>
<path d="M545 2880 c-17 -33 -20 -55 -4 -27 10 18 11 18 24 1 16 -23 10 -58
-17 -95 -12 -16 -19 -32 -15 -35 4 -4 10 2 13 12 4 10 16 30 26 43 22 29 23
64 2 86 -9 8 -13 22 -10 30 10 26 -3 16 -19 -15z"/>
<path d="M1620 2899 c-12 -8 -9 -9 10 -4 l25 6 -25 -15 c-18 -11 -20 -15 -8
-16 9 0 19 -6 21 -12 3 -7 6 -3 6 10 1 12 1 25 2 29 1 12 -15 13 -31 2z"/>
<path d="M1273 2873 c22 -12 20 -14 -20 -17 -7 -1 -13 -5 -13 -9 0 -39 2 -47
11 -47 7 0 20 -10 30 -22 11 -11 20 -18 20 -15 1 4 2 10 3 15 0 4 13 21 29 37
30 33 35 47 12 39 -8 -4 -12 -10 -9 -15 3 -5 -3 -12 -13 -16 -10 -4 -21 -11
-25 -17 -4 -6 -14 -6 -30 1 l-23 12 23 0 c14 1 26 10 32 24 5 12 9 18 9 13 1
-4 13 -1 27 9 19 12 29 14 39 5 8 -6 22 -10 32 -7 14 4 13 5 -4 6 -13 0 -23 5
-23 9 0 4 -29 8 -64 8 -56 -1 -62 -3 -43 -13z"/>
<path d="M1950 2879 c0 -7 -12 -8 -32 -4 -24 4 -29 3 -18 -4 29 -18 74 -17 78
2 2 10 -3 17 -12 17 -9 0 -16 -5 -16 -11z"/>
<path d="M625 2854 c-9 -9 -14 -23 -11 -30 3 -8 2 -14 -3 -14 -16 0 -18 -36
-3 -50 14 -13 15 -12 9 3 -3 9 -3 17 1 17 4 0 9 14 10 32 2 17 8 38 14 45 15
19 3 16 -17 -3z"/>
<path d="M452 2848 c-18 -18 -15 -123 4 -160 9 -17 12 -33 7 -37 -4 -3 -9 -19
-10 -35 -2 -28 -1 -29 14 -13 19 19 27 67 11 67 -6 0 -4 8 5 18 15 16 15 21 2
38 -8 10 -15 14 -15 9 0 -6 5 -16 11 -22 8 -8 8 -13 -1 -18 -6 -4 -14 -5 -17
-2 -10 10 -16 140 -7 134 6 -3 10 3 10 14 0 10 -1 19 -1 19 -1 0 -6 -5 -13
-12z"/>
<path d="M1995 2831 c0 -16 4 -33 9 -38 5 -5 6 -2 1 7 -6 12 -5 12 5 3 8 -7
10 -19 5 -30 -13 -29 -14 -43 -4 -43 5 0 9 10 9 22 0 16 3 19 11 11 7 -7 8
-19 4 -30 -5 -10 -10 -31 -12 -47 -2 -16 -12 -38 -23 -48 -24 -22 -25 -29 -5
-22 8 3 20 19 27 35 7 16 17 29 22 29 4 0 3 6 -3 14 -7 9 -8 17 -2 20 5 3 11
1 13 -6 3 -9 6 -9 12 0 4 7 2 12 -3 12 -6 0 -11 13 -11 29 0 17 -4 33 -10 36
-5 3 -10 23 -11 43 0 30 -2 33 -9 17 -7 -17 -9 -17 -9 -2 -1 29 -16 19 -16
-12z"/>
<path d="M737 2833 c8 -22 24 -34 36 -26 5 3 -1 14 -12 24 -25 24 -32 24 -24
2z"/>
<path d="M1895 2815 c-15 -20 -24 -39 -21 -42 3 -4 6 -1 6 5 0 8 7 9 25 2 22
-9 24 -8 15 14 -5 15 -5 27 3 35 6 6 8 13 5 16 -3 3 -18 -11 -33 -30z"/>
<path d="M1375 2833 c3 -3 0 -12 -6 -19 -12 -14 -6 -44 8 -44 10 0 9 58 0 65
-4 3 -5 2 -2 -2z"/>
<path d="M398 2803 c-14 -27 -14 -35 -2 -50 12 -17 13 -16 9 6 -3 14 0 30 6
37 6 8 9 19 7 26 -3 7 -12 -2 -20 -19z"/>
<path d="M1422 2813 c-19 -19 -14 -23 14 -12 15 5 36 7 47 3 12 -4 17 -2 13 4
-9 15 -61 19 -74 5z"/>
<path d="M695 2810 c4 -6 -1 -17 -9 -26 -9 -8 -16 -21 -15 -27 0 -9 2 -8 6 1
2 6 12 12 22 12 20 0 23 37 3 45 -7 2 -10 0 -7 -5z"/>
<path d="M1817 2799 c-45 -23 -114 -32 -121 -16 -3 7 -5 3 -3 -8 2 -15 9 -20
32 -19 68 3 135 27 135 49 0 8 -1 15 -2 14 -2 -1 -20 -10 -41 -20z"/>
<path d="M2285 2793 c4 -15 8 -33 10 -40 2 -6 -3 -14 -11 -17 -8 -3 -14 -11
-13 -18 0 -10 2 -10 6 -1 7 18 43 -3 43 -24 0 -9 3 -13 6 -10 4 4 -1 27 -10
51 -10 25 -16 52 -14 62 2 9 -3 19 -10 21 -9 4 -11 -3 -7 -24z"/>
<path d="M1600 2794 c0 -14 13 -27 41 -42 22 -12 46 -22 52 -22 13 0 -27 39
-45 42 -7 2 -20 12 -30 23 -17 20 -17 20 -18 -1z"/>
<path d="M2333 2795 c-8 -9 -9 -15 -2 -17 10 -3 17 -27 18 -65 1 -13 5 -23 10
-23 12 0 19 40 10 60 -4 8 -11 25 -15 37 -7 18 -11 19 -21 8z"/>
<path d="M1473 2773 c-13 -8 -23 -18 -23 -22 0 -3 24 -7 52 -9 30 -2 60 -10
70 -19 16 -15 16 -16 -4 -32 -11 -10 -19 -23 -17 -30 3 -8 11 -6 25 8 20 18
23 18 38 3 13 -14 16 -14 16 -2 -1 23 -54 70 -97 85 -21 8 -37 19 -35 24 3 14
2 13 -25 -6z"/>
<path d="M1940 2756 c0 -7 -3 -29 -6 -47 -4 -23 -2 -29 4 -19 14 23 23 80 12
80 -6 0 -10 -6 -10 -14z"/>
<path d="M781 2746 c-7 -8 -10 -19 -7 -24 7 -11 -40 -25 -54 -17 -6 4 -10 2
-10 -3 0 -6 -11 -13 -24 -16 -24 -6 -40 -31 -31 -47 4 -5 12 -3 19 4 8 6 12
14 11 17 -2 3 6 7 18 7 12 1 23 7 25 13 2 5 8 8 13 4 5 -3 9 0 9 7 0 7 3 9 7
6 9 -10 34 13 27 25 -4 6 0 14 7 19 7 4 11 11 8 14 -4 3 -12 -1 -18 -9z"/>
<path d="M1358 2753 c-10 -2 -18 -9 -18 -14 0 -5 -7 -9 -15 -9 -8 0 -15 -5
-15 -11 0 -7 10 -9 28 -5 15 4 44 9 65 13 20 3 37 10 37 16 0 9 -32 6 -75 -8
-14 -4 -13 -2 5 9 25 15 21 18 -12 9z"/>
<path d="M865 2741 c-6 -5 -21 -12 -34 -16 -18 -5 -22 -4 -16 5 5 9 4 11 -3 6
-9 -5 -9 -13 -2 -27 6 -10 13 -19 16 -19 3 0 3 4 0 9 -3 5 1 12 10 15 21 8 21
8 27 -14 5 -18 -8 -25 -43 -22 -3 0 -6 -11 -7 -26 -1 -15 1 -21 4 -14 2 6 9
10 14 6 5 -3 8 0 7 8 -2 8 8 14 24 16 25 3 27 6 17 24 -6 11 -9 29 -6 39 6 22
5 23 -8 10z"/>
<path d="M1786 2737 c-19 -14 -29 -64 -14 -73 5 -3 4 -12 -3 -20 -7 -9 -8 -14
-1 -14 6 0 14 5 18 11 4 7 9 7 13 1 3 -5 17 -13 31 -17 25 -7 25 -7 5 12 -11
10 -28 22 -37 26 -30 11 -20 27 17 27 19 0 35 5 35 11 0 6 -10 10 -22 9 -36
-3 -48 -1 -48 10 0 6 16 10 36 10 21 0 33 4 29 10 -9 14 -38 12 -59 -3z"/>
<path d="M2107 2729 c16 -17 25 -19 39 -10 18 10 18 10 -3 11 -12 0 -25 5 -28
10 -3 6 -11 10 -18 10 -6 0 -2 -10 10 -21z"/>
<path d="M377 2715 c3 -16 9 -37 14 -45 7 -12 9 -11 9 5 1 20 1 20 11 0 9 -20
9 -20 6 0 -1 11 -6 18 -11 15 -4 -3 -14 9 -22 25 l-13 30 6 -30z"/>
<path d="M920 2720 c-23 -6 -22 -7 14 -14 25 -5 40 -14 43 -27 3 -10 9 -19 14
-19 12 0 11 12 -4 30 -23 28 -42 37 -67 30z"/>
<path d="M1230 2716 c0 -12 -5 -16 -15 -12 -9 3 -15 0 -15 -10 0 -8 -4 -13 -8
-10 -5 3 -17 -4 -26 -16 -18 -20 -18 -21 3 -15 11 3 21 1 21 -4 0 -5 -5 -9
-11 -9 -7 0 -4 -11 7 -27 10 -16 24 -39 31 -53 7 -14 13 -19 13 -12 0 7 5 10
10 7 6 -3 10 -1 10 5 0 7 -9 14 -20 17 -11 3 -20 10 -20 15 0 5 9 6 20 3 17
-5 20 -2 20 24 0 16 5 33 11 37 8 4 7 9 -2 14 -10 7 -10 12 1 27 8 10 10 15 6
11 -5 -4 -15 0 -22 10 -13 16 -13 16 -14 -2z m14 -31 c-4 -8 -11 -15 -18 -15
-8 0 -8 -2 1 -8 8 -5 8 -12 -3 -26 -10 -15 -14 -16 -15 -5 -2 24 2 43 13 57
14 17 29 15 22 -3z"/>
<path d="M1740 2717 c0 -7 -14 -14 -32 -15 -39 -3 -45 -9 -29 -25 7 -7 14 -8
19 -2 4 6 16 12 27 13 28 5 50 42 25 42 -5 0 -10 -6 -10 -13z"/>
<path d="M343 2700 c2 -21 -2 -25 -23 -22 -22 2 -23 1 -8 -10 8 -7 18 -33 21
-58 4 -25 9 -65 13 -90 4 -25 7 -55 7 -67 -1 -13 4 -20 9 -17 6 4 8 28 4 61
-4 35 -3 52 4 48 6 -3 7 0 4 9 -3 9 -10 14 -14 11 -11 -7 -18 87 -8 108 5 10
5 24 -1 35 -9 14 -10 13 -8 -8z"/>
<path d="M1403 2698 c-69 -38 -143 -89 -143 -99 0 -14 20 -11 38 7 10 10 18
12 20 6 2 -6 10 -8 18 -5 7 3 12 9 9 13 -3 5 6 20 20 34 14 14 25 23 25 21 0
-3 12 0 27 6 19 7 28 6 33 -1 5 -8 9 -6 13 5 5 11 3 14 -5 9 -8 -5 -9 -2 -5 9
8 22 -1 21 -50 -5z"/>
<path d="M1480 2707 c0 -7 5 -18 11 -24 8 -8 8 -13 0 -17 -6 -4 -11 -2 -11 4
0 7 -7 5 -16 -5 -13 -13 -19 -13 -33 -3 -14 12 -15 11 -2 -4 7 -10 12 -18 10
-19 -2 0 -16 -2 -31 -3 -31 -2 -56 -22 -43 -33 4 -5 10 -2 12 5 4 10 8 10 21
0 12 -10 14 -10 8 0 -4 7 -1 12 8 12 12 0 77 28 103 45 2 1 -3 13 -10 28 -13
28 -27 36 -27 14z"/>
<path d="M1510 2712 c0 -4 5 -13 12 -20 13 -13 52 3 43 19 -7 11 -55 12 -55 1z"/>
<path d="M783 2688 c-15 -20 -23 -62 -14 -76 6 -10 11 -9 22 4 12 16 12 17 -4
11 -13 -5 -17 -3 -14 5 2 7 9 12 14 11 5 -1 9 11 9 28 0 33 0 34 -13 17z"/>
<path d="M2190 2676 c0 -8 5 -18 10 -21 6 -4 8 -10 5 -14 -2 -5 2 -17 10 -27
8 -10 15 -14 15 -8 0 6 -3 14 -7 18 -7 6 -13 29 -15 54 -2 17 -18 15 -18 -2z"/>
<path d="M1657 2661 l21 -24 -26 -22 c-17 -15 -22 -24 -14 -29 7 -4 12 -3 12
3 0 6 6 9 13 7 6 -1 8 -1 4 2 -5 2 -1 12 7 21 15 16 14 20 -12 42 l-27 23 22
-23z"/>
<path d="M2440 2669 c0 -4 -6 -6 -13 -3 -8 3 -20 -2 -27 -11 -12 -15 -10 -15
16 -8 16 4 41 8 55 8 15 0 25 5 23 10 -5 12 -54 16 -54 4z"/>
<path d="M949 2658 c-1 -7 -1 -18 0 -24 1 -7 -6 -15 -15 -18 -15 -6 -15 -4 -3
10 12 15 12 17 -1 12 -22 -7 -25 -38 -5 -38 11 0 15 -5 11 -16 -3 -8 -2 -12 4
-9 6 3 10 1 10 -4 0 -20 18 -11 25 12 6 18 8 19 12 5 2 -9 -1 -27 -7 -38 -13
-25 -10 -32 9 -21 7 5 13 24 14 42 2 30 -1 34 -20 32 -13 -2 -23 2 -23 7 0 6
4 10 9 10 11 0 2 38 -10 46 -5 3 -10 -1 -10 -8z"/>
<path d="M1040 2645 c-8 -9 -9 -15 -4 -13 27 9 107 -88 112 -137 4 -34 0 -32
-22 10 -14 27 -16 28 -16 8 0 -13 5 -23 11 -23 7 0 10 -12 7 -30 -3 -22 -1
-27 7 -20 9 8 11 3 9 -17 -1 -15 1 -34 6 -43 6 -10 9 9 10 58 0 46 4 72 11 72
6 0 -2 13 -17 28 -54 54 -73 82 -67 100 3 9 3 14 -2 10 -4 -4 -14 -3 -20 2 -9
7 -16 5 -25 -5z"/>
<path d="M1944 2639 c-10 -12 -18 -23 -16 -26 4 -6 -44 -43 -56 -43 -5 0 -12
-7 -16 -15 -9 -23 7 -18 44 15 18 16 42 32 52 36 14 4 16 9 8 19 -8 10 -7 14
2 18 7 2 10 7 7 11 -3 3 -14 -3 -25 -15z"/>
<path d="M696 2628 c-10 -11 -18 -32 -18 -46 0 -16 -7 -26 -19 -29 -11 -3 -19
-13 -19 -22 0 -9 -7 -29 -15 -44 -8 -15 -10 -25 -5 -22 4 3 10 2 13 -2 2 -5 2
-2 1 5 -2 6 1 12 6 12 6 0 10 8 10 19 0 10 12 30 26 44 14 15 23 31 19 38 -4
6 -1 15 6 20 21 13 32 11 25 -7 -3 -8 -2 -12 4 -9 14 8 13 35 -1 35 -6 0 -9 7
-5 15 8 21 -5 17 -28 -7z"/>
<path d="M1579 2620 c-17 -19 -44 -32 -82 -40 -31 -7 -54 -16 -52 -20 3 -4
-12 -10 -32 -13 -35 -6 -58 6 -47 24 5 9 -52 6 -61 -3 -4 -4 -4 -12 0 -18 5
-8 11 -8 21 1 12 9 19 8 37 -7 12 -11 34 -26 50 -34 15 -7 27 -18 27 -24 0 -6
7 0 16 12 8 12 13 26 10 31 -3 5 1 15 10 22 12 10 20 10 35 1 16 -11 25 -6 69
37 27 27 50 52 50 55 0 14 -27 1 -51 -24z"/>
<path d="M504 2628 c-5 -7 -2 -9 9 -5 20 8 12 -22 -12 -41 -14 -13 -14 -13 2
-10 11 1 25 18 32 36 13 30 13 32 -5 32 -10 0 -22 -5 -26 -12z"/>
<path d="M2465 2631 c-11 -5 -24 -6 -28 -4 -5 3 -7 -10 -5 -28 2 -19 7 -32 13
-29 5 3 8 16 6 29 -2 20 1 23 18 18 12 -3 24 -1 27 4 3 5 10 9 16 9 6 0 5 -7
-3 -17 -12 -14 -12 -16 1 -11 8 2 15 11 15 19 0 16 -31 22 -60 10z"/>
<path d="M1720 2620 c0 -9 25 -20 47 -20 9 0 21 -7 28 -16 11 -15 14 -15 41 0
22 12 24 16 9 15 -11 -1 -27 0 -35 3 -44 16 -90 25 -90 18z"/>
<path d="M2040 2614 c0 -16 -2 -17 -10 -4 -8 13 -14 11 -37 -13 -18 -18 -22
-26 -10 -21 9 3 17 11 17 16 0 6 9 8 21 5 20 -5 39 17 25 30 -3 4 -6 -2 -6
-13z"/>
<path d="M2260 2623 l-24 -5 24 -13 24 -13 -32 -7 c-27 -6 -31 -10 -26 -29 8
-33 -23 -44 -36 -13 -5 12 -9 15 -9 7 0 -8 6 -24 14 -34 9 -12 15 -15 15 -7 0
8 6 11 15 7 9 -3 15 0 15 10 0 8 7 17 15 20 8 4 15 12 15 19 0 17 23 25 41 14
11 -7 11 -9 -3 -9 -9 0 -20 -4 -23 -10 -4 -6 2 -7 16 -1 25 9 38 31 19 31 -6
0 -8 5 -5 10 3 6 15 10 26 10 10 0 19 5 19 10 0 15 -29 12 -47 -5 -15 -16 -38
-11 -28 6 4 5 5 8 3 8 -2 -1 -14 -4 -28 -6z"/>
<path d="M2079 2588 c-7 -12 -8 -23 -3 -25 5 -2 8 -21 6 -42 -2 -21 0 -41 5
-44 4 -3 8 26 9 64 0 38 -1 69 -3 69 -1 0 -8 -10 -14 -22z"/>
<path d="M1690 2590 c0 -5 5 -10 11 -10 6 0 17 -7 25 -15 9 -8 19 -15 24 -15
5 0 7 7 4 15 -4 8 -12 15 -20 15 -8 0 -14 5 -14 10 0 6 -7 10 -15 10 -8 0 -15
-4 -15 -10z"/>
<path d="M753 2572 c-18 -10 -33 -21 -34 -27 0 -5 -5 -9 -10 -7 -5 1 -9 -2 -9
-8 0 -17 24 -11 50 13 27 24 94 35 105 18 3 -6 15 -11 26 -11 16 0 17 3 7 13
-7 8 -17 14 -23 15 -5 1 -22 4 -37 8 -20 4 -28 2 -28 -7 0 -10 -2 -11 -8 -2
-5 8 -16 7 -39 -5z"/>
<path d="M2116 2573 c-2 -10 -8 -29 -12 -43 -6 -21 -5 -23 8 -12 8 6 15 25 16
42 1 34 -4 39 -12 13z"/>
<path d="M2370 2575 c-10 -52 -8 -65 11 -65 12 0 19 7 19 19 0 14 6 17 25 13
18 -3 25 -11 25 -28 0 -13 5 -24 11 -24 6 0 8 9 3 23 -9 31 -24 48 -37 40 -6
-3 -7 -1 -3 6 4 6 0 14 -9 18 -10 3 -21 0 -25 -7 -6 -10 -9 -9 -13 1 -3 8 -6
10 -7 4z"/>
<path d="M1980 2544 c-14 -35 -13 -44 5 -44 11 0 14 9 12 35 -2 42 -5 43 -17
9z"/>
<path d="M294 2546 c-3 -8 2 -37 10 -66 8 -28 15 -55 15 -58 -3 -19 2 -33 10
-28 5 4 5 23 0 47 -5 22 -7 45 -4 50 4 5 -1 12 -10 15 -12 5 -15 14 -11 30 7
26 -1 33 -10 10z"/>
<path d="M1587 2554 c-8 -8 3 -34 14 -34 5 0 18 9 29 20 20 20 20 20 -8 20
-16 0 -31 -3 -35 -6z"/>
<path d="M2500 2502 c0 -33 -3 -69 -6 -79 -5 -13 -4 -15 4 -8 12 11 19 131 9
142 -4 3 -7 -21 -7 -55z"/>
<path d="M805 2540 c-3 -5 -1 -10 5 -10 7 0 10 -7 6 -15 -7 -20 4 -19 20 3 11
14 13 15 14 2 0 -9 -5 -21 -12 -28 -19 -19 6 -14 28 6 10 9 33 17 52 16 17 -1
32 3 32 8 0 5 -12 8 -27 7 -16 -1 -39 1 -53 5 -52 16 -58 17 -65 6z"/>
<path d="M489 2528 c-3 -28 0 -70 5 -76 11 -11 19 8 9 20 -6 8 -7 22 -2 33 11
28 11 35 -1 35 -5 0 -11 -6 -11 -12z"/>
<path d="M745 2518 c-39 -20 -64 -44 -65 -61 0 -5 14 3 32 18 22 19 34 23 36
15 3 -8 10 -4 18 11 l14 24 -4 -27 c-3 -16 -1 -28 3 -28 5 0 8 16 8 35 -1 19
-1 35 -2 35 0 -1 -18 -10 -40 -22z"/>
<path d="M1617 2510 c-9 -11 -14 -20 -11 -20 4 0 0 -8 -7 -17 -7 -10 4 -2 24
16 20 19 37 36 37 38 0 11 -28 0 -43 -17z"/>
<path d="M1193 2504 c3 -12 1 -27 -3 -35 -4 -8 -4 -25 0 -39 6 -21 7 -19 11
17 2 23 1 50 -3 60 -7 15 -8 15 -5 -3z"/>
<path d="M1230 2506 c0 -7 -3 -28 -6 -45 -5 -25 -4 -30 8 -26 15 6 21 85 6 85
-4 0 -8 -6 -8 -14z"/>
<path d="M1736 2513 c-12 -12 -6 -23 13 -23 11 0 21 -6 24 -12 2 -8 8 -9 13
-4 5 5 4 11 -4 13 -7 3 -18 11 -26 18 -7 8 -16 11 -20 8z"/>
<path d="M2323 2509 c-6 -6 -27 -11 -46 -12 -29 -1 -33 -3 -20 -12 14 -10 13
-13 -2 -28 -9 -9 -12 -17 -7 -17 6 0 8 -8 5 -19 -3 -10 0 -22 6 -25 7 -5 8 -1
5 9 -5 11 -2 14 10 9 10 -4 16 -1 16 7 0 12 2 12 9 0 6 -9 2 -21 -13 -35 -12
-11 -17 -18 -12 -13 22 16 38 7 32 -18 -4 -14 -2 -25 3 -25 15 0 25 60 12 73
-16 16 -14 37 4 37 8 0 15 5 15 10 0 14 -33 13 -48 -2 -9 -9 -12 -8 -12 4 0 9
8 19 18 22 9 3 23 15 30 26 14 22 12 26 -5 9z"/>
<path d="M940 2460 c-25 -28 -55 -53 -67 -56 -13 -3 -23 -10 -23 -14 0 -16
-55 -15 -67 0 -10 13 -12 11 -13 -12 0 -16 -4 -28 -9 -28 -15 0 -23 18 -11 25
5 3 10 12 10 18 0 8 -3 9 -8 1 -11 -16 -50 -24 -56 -10 -3 7 -5 7 -5 -1 -1 -7
-8 -13 -17 -13 -8 0 -12 -4 -9 -10 3 -5 1 -10 -5 -10 -6 0 -13 7 -16 15 -4 8
-12 15 -20 15 -8 0 -5 -9 10 -25 24 -26 46 -33 46 -15 0 6 9 10 20 10 14 0 18
-5 13 -17 -5 -13 -3 -15 13 -9 67 28 118 45 125 41 4 -3 9 -1 11 3 1 5 21 20
43 34 22 14 50 44 63 67 13 22 22 41 20 41 -2 0 -23 -23 -48 -50z"/>
<path d="M1984 2482 c3 -2 -10 -16 -27 -32 -18 -16 -29 -31 -26 -34 3 -3 22
12 43 33 24 24 31 38 21 38 -8 0 -13 -2 -11 -5z"/>
<path d="M1741 2458 c-1 -16 -4 -28 -8 -28 -13 1 -43 27 -38 32 3 2 -2 5 -10
5 -21 0 -19 -16 3 -24 9 -3 25 -13 34 -21 15 -13 18 -12 24 11 3 15 4 32 1 39
-3 7 -6 1 -6 -14z"/>
<path d="M648 2446 c-9 -13 -13 -27 -10 -32 10 -13 32 -16 32 -4 0 6 7 10 15
10 8 0 15 4 15 10 0 5 -7 6 -17 3 -9 -4 -14 -2 -10 3 13 22 -9 31 -25 10z"/>
<path d="M2115 2460 c-3 -5 -3 -15 1 -22 4 -7 3 -8 -4 -4 -8 5 -12 -1 -12 -17
0 -41 27 -28 28 15 2 38 -2 46 -13 28z"/>
<path d="M987 2413 c-3 -15 -6 -48 -6 -73 -1 -24 -6 -49 -12 -55 -8 -7 -9 2
-5 35 4 29 3 38 -3 25 -11 -26 -21 -122 -11 -105 6 10 9 9 14 -1 3 -8 4 -4 2
9 -2 12 0 20 5 16 5 -3 9 -23 9 -45 0 -22 4 -38 8 -35 5 3 7 20 5 38 -3 19 -1
28 4 21 9 -13 7 132 -2 147 -3 6 -2 10 4 10 5 0 8 7 7 15 -4 27 -14 26 -19 -2z"/>
<path d="M1319 2431 c18 -12 24 -50 11 -66 -11 -14 5 -33 17 -21 4 3 0 6 -7 6
-9 0 -6 7 8 20 12 12 22 25 22 30 0 15 -30 40 -48 40 -14 0 -15 -2 -3 -9z"/>
<path d="M1962 2418 c-14 -14 -16 -32 -3 -23 5 3 12 1 15 -4 4 -5 2 -12 -4
-16 -5 -3 -10 -10 -10 -15 0 -9 15 -7 44 5 16 7 17 10 4 19 -8 6 -19 19 -24
29 -8 13 -13 14 -22 5z"/>
<path d="M2215 2395 c4 -16 8 -44 9 -62 0 -17 5 -29 10 -26 10 7 -1 80 -15
102 -8 12 -9 8 -4 -14z"/>
<path d="M1850 2388 c0 -10 -5 -16 -10 -13 -6 3 -13 -2 -17 -12 -3 -10 -20
-30 -37 -45 -16 -15 -28 -29 -25 -32 3 -3 34 21 69 53 58 52 62 58 42 63 -17
5 -22 2 -22 -14z"/>
<path d="M404 2366 c1 -17 6 -37 13 -43 6 -7 13 -18 16 -25 2 -7 8 -10 12 -6
5 5 1 16 -8 26 -18 20 -24 57 -7 47 6 -3 10 -1 10 4 0 6 -5 11 -11 11 -5 0 -8
4 -5 8 3 5 -1 9 -8 9 -8 0 -13 -12 -12 -31z"/>
<path d="M2446 2375 c-17 -68 -29 -102 -47 -132 -16 -28 -16 -33 -3 -33 8 0
12 -4 9 -10 -10 -17 -33 -11 -40 10 -10 30 -22 15 -17 -20 2 -17 -2 -37 -9
-46 -10 -13 -10 -17 1 -24 12 -7 11 -13 -6 -32 -33 -36 -40 -61 -34 -115 1
-14 3 -13 11 5 5 13 6 28 3 33 -6 10 18 52 43 77 15 16 17 32 3 32 -5 0 -10 7
-10 15 0 26 28 17 38 -12 l10 -28 1 25 c1 15 6 31 13 38 9 9 9 12 -1 12 -7 0
-9 5 -4 13 4 6 8 19 8 27 1 8 11 48 24 88 12 40 20 81 18 90 -2 11 -6 7 -11
-13z"/>
<path d="M552 2363 c-12 -15 -22 -34 -22 -43 1 -11 4 -10 12 5 6 11 14 22 18
25 7 5 21 40 17 40 -2 0 -13 -12 -25 -27z"/>
<path d="M1185 2332 c3 -64 3 -64 23 -58 13 4 19 1 19 -9 0 -9 -5 -14 -11 -12
-6 2 -22 8 -36 12 l-25 7 27 -21 c15 -12 33 -19 39 -15 8 4 9 3 5 -4 -5 -8 0
-12 14 -12 13 0 24 -10 31 -27 14 -37 29 -54 41 -47 6 4 5 9 -3 14 -6 5 -20
39 -30 77 -14 54 -18 61 -18 34 -1 -55 -13 -29 -21 44 0 6 -5 2 -11 -7 -19
-34 -38 -21 -32 21 3 21 1 41 -4 44 -5 3 -8 -15 -8 -41z"/>
<path d="M1711 2335 c-29 -33 -45 -95 -20 -80 6 4 8 14 5 22 -4 10 7 28 29 49
19 18 31 35 26 38 -5 3 -23 -10 -40 -29z"/>
<path d="M1143 2325 c-9 -29 -10 -42 -1 -50 8 -7 9 -6 4 3 -4 7 -2 19 4 27 6
8 10 24 8 37 -2 19 -5 16 -15 -17z"/>
<path d="M576 2311 c-10 -21 -18 -49 -17 -62 0 -13 1 -33 1 -44 1 -11 -1 -31
-3 -45 -2 -14 0 -29 4 -35 4 -5 9 -21 12 -35 3 -14 5 12 4 57 -1 52 2 79 8 75
5 -3 4 2 -3 11 -12 14 -11 23 3 62 22 56 16 67 -9 16z"/>
<path d="M1950 2302 c0 -7 -11 -12 -25 -12 -19 0 -25 -5 -24 -22 0 -13 3 -17
6 -10 2 6 10 12 18 12 16 0 40 28 31 37 -3 3 -6 1 -6 -5z"/>
<path d="M677 2280 c-5 -18 -9 -21 -15 -12 -7 10 -12 9 -23 -4 -12 -16 -12
-17 4 -11 11 4 25 -1 37 -13 11 -11 20 -19 21 -17 5 15 4 47 -2 47 -4 0 -9 8
-11 18 -3 13 -5 11 -11 -8z"/>
<path d="M1963 2250 c-14 -38 0 -48 21 -16 12 19 13 26 3 35 -10 7 -16 3 -24
-19z"/>
<path d="M907 2223 c-4 -6 2 -27 14 -47 11 -19 19 -43 18 -53 -1 -10 1 -35 6
-56 8 -40 28 -45 33 -9 2 12 8 22 14 22 5 0 7 -7 4 -16 -4 -11 -2 -15 8 -11 9
4 13 -3 13 -21 0 -15 -2 -21 -4 -14 -10 27 -18 9 -16 -35 1 -27 -4 -55 -11
-63 -7 -8 -16 -23 -19 -33 -5 -14 -3 -16 11 -8 22 12 52 48 52 62 0 5 -6 7
-12 3 -9 -5 -9 -2 1 9 11 14 11 17 0 17 -7 0 0 13 15 29 20 21 26 35 22 48 -4
10 -8 20 -9 23 -1 3 5 5 13 6 20 0 50 14 50 23 0 4 -9 7 -20 7 -11 0 -20 -3
-20 -6 0 -3 -9 -11 -21 -18 -18 -12 -24 -10 -46 14 -16 18 -23 35 -20 50 4 24
-8 34 -15 12 -2 -6 -10 -8 -17 -4 -7 5 -10 14 -7 22 3 8 2 14 -3 14 -4 0 -12
10 -18 22 -6 14 -12 18 -16 11z"/>
<path d="M1718 2223 c-9 -2 -21 -17 -27 -34 -12 -35 -7 -37 23 -4 13 13 25 22
28 19 4 -3 9 -1 12 4 7 12 -13 20 -36 15z"/>
<path d="M1556 2174 c-25 -25 -46 -51 -46 -57 0 -6 10 0 22 14 11 13 35 39 52
57 46 49 24 38 -28 -14z"/>
<path d="M1929 2203 c-1 -5 0 -20 1 -35 1 -17 -4 -28 -11 -28 -7 0 -10 -2 -7
-5 3 -3 12 -3 21 1 12 4 15 14 10 36 -5 24 -3 29 7 23 9 -5 11 -4 6 3 -8 13
-25 16 -27 5z"/>
<path d="M463 2178 c0 -7 -3 -29 -7 -48 l-7 -35 16 34 c17 37 19 61 7 61 -5 0
-9 -6 -9 -12z"/>
<path d="M1803 2167 c-4 -6 -1 -7 7 -2 9 6 10 1 6 -16 -7 -23 -6 -23 8 -5 9
11 18 17 22 14 8 -9 -16 -49 -26 -43 -5 3 -11 1 -15 -5 -11 -18 27 -11 41 8
23 29 17 57 -11 58 -14 1 -28 -3 -32 -9z"/>
<path d="M1344 2135 c6 -19 14 -31 18 -29 11 7 29 -43 22 -61 -8 -19 3 -19 22
0 9 8 11 15 6 15 -5 0 -19 22 -32 49 -28 60 -52 77 -36 26z"/>
<path d="M1994 2150 c-28 -11 -40 -30 -20 -30 9 0 16 5 16 10 0 6 6 10 14 10
8 0 18 5 21 10 7 12 -2 12 -31 0z"/>
<path d="M2053 2137 c-7 -15 -13 -31 -13 -34 0 -3 6 -1 13 4 6 6 20 9 29 8 10
-2 21 2 25 7 4 7 -1 9 -15 6 -16 -5 -22 -1 -24 15 -3 19 -4 19 -15 -6z"/>
<path d="M1210 2128 c19 -5 38 -15 42 -21 5 -7 8 -8 8 -1 0 19 -24 34 -54 33
l-31 -1 35 -10z"/>
<path d="M2298 2104 c5 -26 3 -27 -27 -21 -26 5 -29 4 -19 -7 19 -20 65 -1 63
26 -1 12 -6 23 -12 25 -6 2 -8 -7 -5 -23z"/>
<path d="M2428 2118 c-8 -23 2 -172 13 -207 7 -19 15 -57 20 -85 l7 -51 -2 65
c-1 36 -6 72 -10 79 -5 7 -10 41 -12 75 -2 33 -6 72 -9 86 -5 25 -5 25 20 -5
l26 -30 -12 28 c-7 15 -16 27 -22 27 -5 0 -7 7 -3 15 3 8 1 15 -3 15 -5 0 -11
-6 -13 -12z"/>
<path d="M1144 2095 c-21 -32 -8 -53 16 -25 9 11 24 20 31 20 9 -1 5 -8 -10
-20 -23 -20 -23 -20 -2 -20 28 0 27 -20 -1 -21 -33 -2 -72 2 -78 8 -2 2 2 8
10 13 8 5 11 12 7 16 -9 10 -20 -2 -22 -24 0 -9 -5 -24 -10 -31 -6 -11 -4 -13
9 -8 14 6 17 3 12 -10 -6 -17 -5 -17 7 -1 8 10 17 15 20 12 3 -3 12 -2 19 2 7
5 36 9 63 10 28 0 55 2 62 3 14 1 37 66 30 84 -3 6 -6 2 -6 -10 -1 -27 -18
-31 -24 -5 -2 9 -3 7 -2 -6 1 -12 -2 -25 -6 -28 -5 -3 -9 0 -9 7 0 7 -8 5 -20
-6 -17 -15 -20 -16 -20 -3 0 18 -37 68 -50 68 -5 0 -17 -11 -26 -25z"/>
<path d="M2021 2115 c0 -5 -16 -27 -35 -48 -32 -36 -39 -58 -23 -73 4 -4 7 3
7 15 0 12 14 35 31 50 20 19 29 35 26 47 -3 11 -5 15 -6 9z"/>
<path d="M2121 2093 c-1 -21 -21 -34 -21 -14 0 5 -7 12 -16 15 -8 3 -12 2 -9
-4 3 -6 1 -10 -4 -10 -6 0 -11 -4 -11 -9 0 -6 9 -8 19 -6 12 2 21 -3 24 -16 3
-10 1 -19 -4 -19 -5 0 -9 -5 -9 -11 0 -8 5 -7 15 1 9 7 14 19 11 26 -3 7 0 14
6 16 5 2 8 15 5 28 -4 23 -4 24 -6 3z"/>
<path d="M2195 2079 c12 -37 14 -78 4 -84 -5 -4 -9 -14 -8 -23 0 -14 2 -13 9
3 6 14 9 16 10 5 2 -8 5 -2 9 15 4 18 14 31 25 33 15 3 18 0 13 -17 -3 -12 -1
-21 4 -21 5 0 9 -5 9 -11 0 -5 -6 -7 -12 -3 -8 5 -7 1 2 -10 13 -17 14 -17 21
1 3 10 2 24 -3 30 -6 7 -8 22 -5 33 4 17 1 20 -21 18 -23 -3 -27 1 -27 23 0
17 -5 26 -18 26 -14 1 -16 -3 -12 -18z"/>
<path d="M646 2082 c-2 -4 -3 -64 -1 -132 2 -69 3 -144 4 -167 1 -35 4 -41 17
-36 13 5 15 1 10 -15 -16 -58 -18 -67 -7 -52 6 8 11 24 11 35 0 17 2 17 10 5
8 -12 10 -12 10 5 0 33 -12 65 -21 59 -5 -3 -7 -10 -4 -15 4 -5 2 -9 -3 -9 -5
0 -8 20 -7 45 2 30 0 43 -7 39 -6 -4 -8 -2 -5 3 6 9 7 74 5 221 0 23 -4 27
-12 14z"/>
<path d="M2364 2078 c-5 -7 -7 -21 -6 -30 2 -10 -2 -18 -7 -18 -6 0 -11 -8
-11 -17 1 -16 2 -16 15 1 8 11 15 28 15 37 0 10 4 21 10 24 5 3 7 0 4 -8 -3
-8 0 -18 6 -22 8 -5 11 0 8 16 -4 26 -23 36 -34 17z"/>
<path d="M2140 2040 c-7 -16 -9 -33 -6 -38 3 -5 -6 -20 -19 -32 -14 -13 -24
-33 -24 -44 1 -18 2 -19 6 -3 3 11 14 28 25 39 l21 21 -5 -24 c-3 -13 -9 -33
-13 -44 -4 -13 -4 -16 2 -7 5 7 17 10 26 6 10 -3 17 -1 17 6 0 6 4 8 10 5 6
-4 7 1 3 11 -6 16 -7 15 -20 -2 -12 -16 -13 -14 -13 19 0 23 5 37 13 37 7 1 5
6 -5 14 -16 12 -16 15 -2 32 9 10 13 13 9 7 -3 -7 -1 -13 4 -13 16 0 13 27 -3
33 -9 4 -19 -5 -26 -23z"/>
<path d="M513 2047 c3 -9 2 -17 -3 -17 -14 0 59 -100 73 -101 7 -1 16 -1 20 0
4 1 7 -4 6 -11 -2 -22 13 -58 22 -52 5 3 2 21 -6 41 -8 19 -15 47 -15 60 0 14
-12 39 -27 57 -15 17 -24 23 -20 14 9 -25 -9 -22 -35 4 -16 16 -20 17 -15 5z
m47 -43 c8 -7 20 -12 25 -11 6 1 11 -14 13 -33 l3 -35 -24 25 c-35 38 -66 86
-47 76 8 -5 22 -15 30 -22z"/>
<path d="M2046 2018 c-9 -18 -23 -42 -31 -54 -14 -18 -14 -21 0 -21 8 0 13 2
10 5 -2 2 6 19 19 36 27 36 39 66 27 66 -5 0 -16 -15 -25 -32z"/>
<path d="M1051 1993 c1 -4 1 -10 -1 -13 -8 -22 -8 -50 0 -45 5 3 10 13 10 21
0 9 5 12 11 8 7 -4 10 1 7 11 -1 10 -9 20 -16 23 -7 2 -12 0 -11 -5z"/>
<path d="M1476 1984 c-8 -22 -8 -64 2 -64 12 0 52 47 52 61 -1 11 -4 10 -13
-2 -14 -19 -38 -14 -30 7 3 8 3 14 0 14 -3 0 -8 -7 -11 -16z"/>
<path d="M2331 1971 c-22 -20 -32 -40 -33 -65 -2 -20 -6 -36 -9 -36 -3 0 -6
-7 -6 -15 0 -8 4 -15 7 -15 16 0 30 29 36 74 4 25 10 46 15 46 5 0 13 9 19 20
15 27 8 25 -29 -9z"/>
<path d="M1943 1968 c-5 -7 -13 -22 -16 -33 -7 -20 -7 -20 8 -1 15 19 15 19
15 -1 0 -12 3 -24 8 -26 8 -6 8 60 0 68 -3 3 -10 0 -15 -7z"/>
<path d="M711 1952 c0 -7 -5 -11 -10 -7 -5 3 -13 0 -17 -6 -4 -8 -3 -9 4 -5
11 7 17 -6 13 -28 -1 -6 3 -21 11 -34 11 -21 10 -26 -5 -36 -9 -7 -14 -16 -11
-19 4 -3 13 1 21 9 9 8 18 12 21 9 4 -3 0 -10 -7 -15 -10 -5 -6 -8 12 -7 30 2
35 12 12 21 -8 3 -15 15 -15 26 0 12 -4 18 -10 15 -6 -4 -10 5 -10 20 0 15 4
24 10 20 6 -3 10 -1 10 4 0 6 -4 11 -9 11 -5 0 -12 8 -14 18 -3 9 -5 11 -6 4z"/>
<path d="M760 1940 c-4 -33 3 -76 16 -94 17 -25 17 -17 -1 54 -7 30 -14 48
-15 40z"/>
<path d="M2256 1935 c4 -9 1 -27 -6 -40 -7 -14 -9 -31 -5 -42 5 -10 7 -22 6
-28 -2 -5 1 -7 5 -3 12 12 16 116 4 123 -6 4 -7 0 -4 -10z"/>
<path d="M1725 1921 c-3 -5 -1 -12 5 -16 16 -10 12 -25 -5 -18 -9 3 -15 2 -14
-3 4 -26 -2 -36 -21 -31 -25 6 -48 -18 -25 -27 11 -4 14 -2 9 6 -5 7 -2 9 8 6
9 -4 26 4 42 18 28 27 32 39 16 49 -6 4 -8 11 -5 16 4 5 4 9 1 9 -3 0 -7 -4
-11 -9z"/>
<path d="M2379 1918 c-1 -7 -3 -20 -4 -28 0 -8 -5 -28 -9 -43 -5 -18 -4 -37 3
-50 6 -12 15 -44 20 -72 l10 -50 -6 55 c-7 61 -5 155 3 183 3 9 1 17 -5 17 -6
0 -12 -6 -12 -12z"/>
<path d="M1130 1910 c-8 -5 -17 -7 -21 -4 -13 8 -22 -17 -10 -29 8 -8 11 -8
11 0 0 6 11 10 25 8 15 -1 25 3 25 11 0 18 -13 24 -30 14z"/>
<path d="M1200 1889 c-35 -30 -45 -58 -25 -71 6 -4 12 4 16 20 3 15 11 26 18
24 8 -2 11 3 8 11 -3 8 0 20 6 26 20 20 53 12 95 -25 23 -19 40 -30 37 -22 -8
20 -81 68 -102 68 -10 -1 -34 -14 -53 -31z"/>
<path d="M1591 1892 c-15 -17 -21 -21 -17 -9 3 10 2 16 -3 13 -4 -3 -8 -20 -8
-38 -1 -18 2 -26 5 -18 3 8 16 26 29 39 19 22 30 42 21 41 -2 0 -14 -13 -27
-28z"/>
<path d="M2131 1891 c-8 -5 -12 -18 -8 -30 3 -13 0 -21 -7 -21 -15 0 -40 -66
-30 -82 4 -7 4 -10 -1 -6 -11 11 -35 -11 -35 -31 1 -14 2 -14 14 2 17 22 26
22 21 -2 -3 -14 1 -18 11 -14 16 6 18 19 5 28 -6 3 -5 18 3 38 8 17 11 38 9
45 -3 6 2 12 11 12 9 0 18 11 22 25 8 33 2 46 -15 36z"/>
<path d="M1505 1880 c-3 -5 -4 -10 -1 -10 3 0 -6 -11 -19 -25 -31 -30 -34 -50
-4 -35 12 7 18 18 15 26 -4 10 0 14 11 12 9 -2 17 5 18 14 4 21 -11 33 -20 18z"/>
<path d="M802 1846 c0 -20 -4 -42 -10 -49 -13 -17 -11 -41 5 -55 11 -10 13 -9
14 10 1 13 1 27 0 32 -1 6 3 20 10 32 9 18 8 26 -4 44 -15 21 -15 21 -15 -14z"/>
<path d="M1035 1847 c-18 -15 -24 -28 -20 -40 4 -9 11 -17 16 -17 5 0 9 -7 9
-15 0 -17 -29 -17 -43 0 -5 6 -5 -1 -2 -14 5 -15 3 -21 -3 -17 -6 3 -14 -4
-18 -16 -3 -12 -13 -28 -20 -36 -8 -7 -14 -23 -14 -35 1 -21 1 -21 17 4 20 33
134 78 118 47 -4 -7 0 -5 8 4 8 10 17 15 20 11 4 -3 7 2 7 12 0 13 -3 15 -13
7 -19 -16 -69 -19 -74 -4 -3 6 2 12 10 12 8 0 18 12 23 28 8 28 14 92 8 92 -1
0 -15 -10 -29 -23z"/>
<path d="M1084 1858 c2 -7 -1 -25 -5 -40 -6 -23 -4 -28 11 -28 10 0 20 9 23
20 3 11 0 20 -6 20 -7 0 -5 5 3 10 13 8 13 10 -2 10 -9 0 -19 5 -21 10 -3 6
-4 5 -3 -2z"/>
<path d="M1264 1846 c6 -24 5 -25 -19 -16 -14 5 -25 6 -25 2 0 -4 -5 0 -10 8
-5 8 -10 11 -10 5 0 -21 16 -32 47 -30 26 1 33 -3 38 -23 7 -29 -18 -52 -49
-45 -19 4 -19 3 4 -16 17 -13 26 -16 29 -8 2 6 13 19 24 28 19 15 19 17 3 49
-10 21 -13 37 -7 43 6 6 12 -4 16 -26 5 -25 11 -34 23 -32 10 2 19 4 22 4 2 1
-6 8 -18 17 -13 9 -21 21 -19 28 6 14 -12 30 -37 34 -15 3 -17 -1 -12 -22z"/>
<path d="M2424 1855 c3 -8 9 -22 13 -32 4 -11 3 -14 -6 -9 -12 8 -9 -34 9
-114 l8 -35 2 35 c1 19 2 39 1 44 -1 5 -4 30 -5 55 -2 25 -4 52 -5 59 0 6 -6
12 -12 12 -6 0 -8 -7 -5 -15z"/>
<path d="M2177 1850 c-3 -8 -8 -33 -11 -55 l-5 -40 15 45 c13 40 14 86 1 50z"/>
<path d="M1399 1827 c11 -14 11 -17 0 -17 -8 0 -21 -5 -29 -10 -23 -15 2 -27
45 -22 38 5 48 22 13 22 -15 0 -19 3 -11 8 9 5 6 12 -10 21 -20 13 -21 13 -8
-2z"/>
<path d="M1497 1805 c-15 -14 -24 -25 -20 -25 4 0 1 -5 -7 -10 -9 -6 -10 -10
-3 -10 6 0 15 5 19 11 4 8 9 7 15 -2 11 -19 22 -5 24 31 1 16 1 30 1 30 -1 0
-14 -12 -29 -25z"/>
<path d="M2045 1800 c-3 -11 -10 -20 -15 -20 -5 0 -7 8 -3 18 4 13 3 14 -6 6
-13 -12 -23 -64 -12 -64 9 0 36 33 51 59 6 13 7 21 1 21 -5 0 -13 -9 -16 -20z"/>
<path d="M890 1786 c-21 -56 -9 -84 23 -52 8 8 17 13 20 9 3 -3 5 5 4 17 -1
13 -9 25 -19 28 -10 2 -15 8 -12 13 3 5 3 9 -1 9 -3 0 -10 -11 -15 -24z"/>
<path d="M1945 1750 c-16 -27 -33 -50 -37 -50 -4 0 -5 -7 -1 -16 5 -13 10 -8
24 20 9 19 24 43 33 51 13 14 23 46 14 45 -2 0 -16 -23 -33 -50z"/>
<path d="M844 1762 c3 -14 -1 -25 -10 -29 -22 -8 -17 -22 6 -16 22 6 24 17 9
48 -9 18 -9 18 -5 -3z"/>
<path d="M1415 1760 c-4 -6 -11 -8 -16 -4 -5 3 -14 -8 -20 -25 -6 -17 -15 -31
-20 -31 -5 0 -9 -9 -9 -20 0 -11 -4 -20 -9 -20 -15 0 -19 -36 -6 -60 l12 -23
7 29 c4 16 14 43 21 59 8 17 15 39 17 50 2 12 10 19 20 17 9 -1 19 2 23 8 4 6
-1 7 -12 3 -16 -6 -16 -5 -4 10 7 9 11 17 8 17 -3 0 -9 -5 -12 -10z"/>
<path d="M1710 1740 c-13 -11 -31 -20 -42 -20 -20 0 -24 -15 -7 -25 6 -4 8
-13 5 -21 -3 -8 0 -14 5 -14 6 0 9 8 7 18 -5 17 3 30 31 46 10 7 12 3 6 -15
-5 -19 -4 -21 4 -9 6 8 11 23 11 33 0 11 4 15 12 11 7 -4 8 -3 4 4 -9 15 -9
15 -36 -8z"/>
<path d="M1883 1728 c-1 -17 -8 -37 -15 -46 -11 -13 -11 -14 1 -8 8 5 16 4 20
-3 4 -6 7 9 6 33 0 52 -9 68 -12 24z"/>
<path d="M724 1716 c0 -19 3 -33 7 -30 4 2 10 -8 12 -23 2 -16 3 -3 2 27 -3
59 -21 82 -21 26z"/>
<path d="M1120 1743 c0 -10 30 -33 42 -33 10 0 9 3 -2 10 -8 5 -13 10 -10 11
34 6 43 8 48 13 3 3 -13 5 -36 4 -23 -1 -42 -3 -42 -5z"/>
<path d="M2282 1725 c1 -17 -2 -37 -7 -45 -5 -9 0 -8 13 4 14 12 19 23 13 30
-4 6 -11 18 -14 26 -4 8 -6 1 -5 -15z"/>
<path d="M2473 1727 c4 -10 1 -17 -6 -17 -8 0 -8 -3 2 -9 9 -6 11 -18 6 -40
-6 -27 -9 -30 -18 -17 -7 9 -22 18 -34 21 -20 3 -23 0 -22 -23 1 -17 3 -21 6
-9 2 9 10 17 17 17 18 0 47 -35 39 -46 -4 -5 -3 -4 3 1 15 13 34 95 23 95 -4
0 -6 6 -3 14 3 8 0 17 -7 22 -9 5 -10 2 -6 -9z"/>
<path d="M2133 1708 c-20 -26 -26 -41 -14 -34 9 6 10 0 6 -21 -6 -26 -5 -26 7
-8 12 20 23 75 15 75 -3 0 -9 -6 -14 -12z"/>
<path d="M1086 1695 c-7 -20 54 -60 65 -43 7 11 -10 48 -23 48 -4 0 -10 -4
-13 -10 -3 -5 1 -10 9 -10 9 0 16 -4 16 -10 0 -5 -4 -10 -8 -10 -15 0 -30 22
-25 36 3 8 1 14 -5 14 -5 0 -12 -7 -16 -15z"/>
<path d="M698 1678 c3 -13 1 -19 -5 -15 -15 10 -25 -21 -13 -42 5 -10 6 -21 3
-25 -10 -10 -11 -66 -1 -60 5 4 7 12 4 20 -7 19 4 45 16 38 6 -4 5 3 -1 15 -8
15 -9 27 -2 39 10 16 10 16 11 0 0 -10 4 -18 8 -18 4 0 6 -16 4 -36 -7 -56 25
-144 52 -144 6 0 4 4 -4 10 -8 5 -11 13 -6 17 4 4 14 -1 22 -11 11 -16 11 -21
1 -28 -9 -6 -9 -8 1 -8 6 0 12 -11 12 -24 0 -14 4 -27 9 -30 5 -4 7 4 3 16 -5
22 -4 22 15 6 26 -24 31 -23 25 7 -2 14 -8 22 -13 20 -12 -8 -30 31 -23 52 4
13 3 14 -4 5 -7 -11 -16 -6 -41 18 -17 17 -29 36 -25 41 3 5 0 9 -6 9 -7 0
-10 15 -9 38 2 21 0 43 -5 50 -4 7 -4 17 0 24 4 7 3 8 -4 4 -8 -5 -12 0 -12
13 0 12 -4 21 -9 21 -5 0 -7 -10 -3 -22z"/>
<path d="M1172 1687 c-16 -19 3 -46 20 -29 6 6 8 12 4 12 -5 0 -3 7 4 15 10
12 10 15 -3 15 -8 0 -19 -6 -25 -13z"/>
<path d="M1805 1659 c2 -10 -1 -19 -7 -19 -5 0 -7 -7 -4 -16 3 -8 1 -25 -5
-37 -9 -19 -7 -18 10 3 11 14 16 26 11 28 -6 2 -3 10 5 19 19 18 19 29 1 36
-10 4 -14 0 -11 -14z"/>
<path d="M2180 1671 c0 -5 7 -14 16 -22 12 -10 14 -23 9 -61 -4 -27 -3 -48 2
-48 5 0 10 22 12 50 1 38 -3 54 -19 70 -11 11 -20 16 -20 11z"/>
<path d="M1000 1655 c0 -9 7 -27 16 -40 9 -14 14 -32 10 -40 -4 -11 -2 -14 6
-9 8 5 9 2 3 -12 -4 -10 -9 -35 -10 -55 -1 -20 -6 -43 -11 -50 -7 -12 -5 -12
9 0 15 12 18 10 26 -10 6 -14 10 -17 10 -9 1 9 -5 25 -13 36 -16 22 -10 73 9
80 8 4 5 19 -12 55 -13 27 -21 54 -18 59 3 6 -1 10 -9 10 -9 0 -16 -7 -16 -15z"/>
<path d="M1400 1657 c-15 -12 -40 -77 -47 -127 -2 -13 -14 -32 -26 -42 -12
-11 -38 -32 -57 -48 -19 -16 -32 -31 -29 -34 3 -4 19 5 35 19 16 14 34 25 40
25 7 0 19 11 28 25 9 14 23 25 31 25 11 0 12 6 5 24 -9 24 10 97 32 124 15 17
6 23 -12 9z"/>
<path d="M1698 1649 c-23 -24 -22 -29 1 -29 12 0 20 9 23 25 6 29 0 30 -24 4z"/>
<path d="M2360 1646 c0 -8 -3 -22 -7 -32 -8 -23 13 -10 27 16 7 13 6 19 -5 24
-9 3 -15 0 -15 -8z"/>
<path d="M2250 1608 c0 -23 3 -38 7 -35 9 10 10 77 1 77 -4 0 -8 -19 -8 -42z"/>
<path d="M779 1620 c-2 -14 1 -36 7 -50 6 -14 15 -36 21 -50 10 -23 10 -21 8
15 -1 22 -9 56 -17 75 -15 34 -15 34 -19 10z"/>
<path d="M2090 1625 c-7 -9 -10 -18 -7 -22 4 -3 2 -12 -4 -20 -8 -9 -8 -13 -1
-13 14 0 22 14 28 45 5 29 1 31 -16 10z"/>
<path d="M1058 1621 c7 -4 14 -14 15 -22 2 -8 5 -18 8 -24 4 -5 9 -23 13 -38
4 -16 11 -25 17 -21 8 4 7 9 -1 14 -8 5 -10 15 -5 26 4 11 9 14 12 8 5 -15
116 -8 121 7 3 6 9 6 18 -2 10 -8 14 -8 14 0 0 6 6 11 14 11 17 0 27 23 16 40
-6 9 -10 7 -15 -9 -6 -19 -39 -28 -77 -22 -5 0 -8 -3 -8 -7 0 -10 -41 -9 -57
1 -7 5 -13 5 -13 2 0 -4 -14 5 -31 19 -17 14 -36 26 -42 26 -8 0 -8 -3 1 -9z"/>
<path d="M939 1618 c-4 -6 -6 -78 -3 -78 5 0 34 58 34 67 0 4 -8 -1 -16 -12
-16 -20 -16 -20 -9 3 3 12 4 22 1 22 -3 0 -7 -1 -7 -2z"/>
<path d="M1625 1593 c2 -10 4 -21 4 -25 1 -5 8 -8 16 -8 8 0 15 -4 15 -10 0
-5 -4 -10 -10 -10 -5 0 -10 -4 -10 -10 0 -17 27 1 39 26 14 32 14 37 -1 27
-22 -13 -38 -12 -38 2 0 8 -4 16 -9 19 -5 4 -8 -2 -6 -11z"/>
<path d="M2331 1554 c0 -26 -6 -51 -12 -54 -6 -4 -5 -11 5 -19 20 -17 32 -91
16 -101 -18 -11 -21 -95 -4 -117 17 -23 18 -34 2 -30 -7 1 -13 -5 -12 -13 1
-9 -7 -17 -18 -17 -12 -1 -16 3 -12 10 4 7 3 9 -1 4 -5 -4 -10 -18 -12 -30 -2
-12 -12 -29 -23 -37 -22 -16 -45 -80 -29 -80 9 0 13 14 10 37 -1 6 9 19 22 30
13 10 26 26 30 36 3 9 13 17 20 17 8 0 22 9 32 20 15 17 16 24 7 46 -7 13 -12
46 -11 72 1 46 1 46 10 15 5 -18 12 -33 14 -33 5 0 0 69 -12 150 -4 25 -5 50
-3 55 5 17 1 56 -8 72 -6 10 -9 -1 -11 -33z"/>
<path d="M2160 1575 c0 -9 -9 -29 -21 -44 -12 -16 -22 -40 -22 -55 -1 -16 -7
-24 -14 -22 -7 3 -10 -1 -6 -10 5 -13 -38 -63 -55 -64 -12 -1 -98 -80 -87 -80
6 0 25 14 43 30 18 17 37 30 43 30 5 0 9 5 9 11 0 5 8 9 18 7 26 -4 52 20 52
47 0 13 6 26 13 28 9 4 9 6 0 6 -7 1 -10 8 -7 16 4 8 10 12 15 9 8 -4 10 6 9
31 -1 3 6 13 15 21 17 17 20 54 5 54 -5 0 -10 -7 -10 -15z"/>
<path d="M2300 1579 c0 -6 -12 -25 -26 -44 -16 -22 -27 -50 -29 -82 -3 -26 -2
-41 2 -33 3 8 13 23 21 33 15 16 14 17 -1 11 -10 -3 -17 -1 -17 5 0 6 5 11 10
11 6 0 10 3 9 8 -3 18 15 52 27 52 8 0 14 10 14 25 0 14 -2 25 -5 25 -3 0 -5
-5 -5 -11z"/>
<path d="M1282 1554 c-31 -13 -42 -37 -22 -49 6 -3 10 0 10 8 0 9 15 19 34 24
26 6 31 11 22 19 -9 9 -21 8 -44 -2z"/>
<path d="M1744 1562 c-15 -10 -37 -53 -30 -59 3 -3 9 3 13 13 4 10 14 24 22
31 17 12 12 26 -5 15z"/>
<path d="M1777 1535 c-15 -19 -39 -38 -53 -41 -18 -5 -23 -11 -19 -24 3 -10 0
-22 -6 -26 -8 -5 -9 -3 -4 7 8 12 6 12 -8 0 -18 -15 -23 -26 -7 -16 6 3 10 2
10 -2 0 -16 -24 -33 -46 -33 -14 0 -25 -8 -29 -19 -6 -19 -33 -36 -43 -26 -3
3 3 12 14 21 18 15 18 15 -2 5 -11 -5 -26 -17 -34 -25 -7 -9 -20 -16 -30 -16
-10 0 -20 -6 -23 -14 -3 -7 -22 -17 -41 -20 -23 -5 -34 -11 -30 -18 5 -7 1 -9
-9 -5 -10 3 -17 2 -17 -4 0 -12 73 0 78 12 2 5 9 9 17 9 7 0 18 7 25 15 7 8
18 14 24 14 6 -1 18 1 26 4 8 4 28 11 44 17 18 7 26 15 23 25 -4 9 -1 12 9 8
21 -8 18 -16 -26 -59 -27 -26 -39 -47 -38 -64 1 -25 1 -25 5 -1 3 13 13 26 24
28 10 3 19 11 19 18 0 8 10 22 23 32 13 10 26 26 30 36 4 11 16 21 27 24 19 5
20 6 3 19 -17 13 -17 14 1 7 15 -5 18 -3 13 10 -4 10 4 27 21 44 31 31 66 83
60 88 -2 2 -16 -11 -31 -30z"/>
<path d="M1995 1550 c-3 -11 -12 -20 -18 -20 -7 0 -18 -9 -25 -20 -10 -16 -10
-20 0 -20 22 1 44 24 52 53 7 31 1 37 -9 7z"/>
<path d="M1226 1534 c-3 -8 -10 -12 -16 -9 -5 3 -10 1 -10 -5 0 -6 -4 -9 -9
-5 -10 5 -26 -13 -19 -21 3 -2 19 1 36 7 21 7 32 18 32 30 0 23 -6 24 -14 3z"/>
<path d="M2290 1485 c0 -39 -6 -52 -41 -90 -44 -48 -60 -53 -38 -13 7 12 14
38 16 56 l2 33 -19 -24 c-12 -14 -17 -32 -13 -45 3 -13 1 -22 -6 -22 -6 0 -11
7 -11 15 0 8 -8 15 -17 15 -14 0 -15 -2 -4 -9 9 -6 11 -18 7 -35 -4 -15 -10
-25 -15 -22 -4 3 -7 -5 -6 -19 2 -13 -3 -29 -11 -36 -12 -9 -13 -6 -10 17 2
16 1 21 -1 12 -2 -10 -9 -18 -14 -18 -5 0 -8 -3 -7 -7 2 -5 -8 -23 -22 -40
-24 -33 -50 -44 -50 -20 0 8 -3 9 -8 1 -4 -6 -16 -16 -27 -23 -19 -12 -19 -12
3 -8 13 3 22 0 22 -6 0 -8 4 -7 9 2 5 7 13 11 19 8 5 -4 17 2 27 13 10 11 22
17 28 13 6 -3 7 -1 3 5 -4 7 -1 12 7 12 8 0 17 7 21 15 3 9 12 12 22 8 13 -5
16 -3 11 10 -3 9 -2 17 4 17 6 0 8 8 5 18 -3 9 -1 24 4 32 8 12 10 9 10 -12 0
-15 5 -30 12 -34 7 -4 8 -3 4 4 -4 7 -1 12 6 12 9 0 9 3 2 8 -8 5 -5 13 7 26
19 20 24 13 20 -23 -2 -7 3 -10 9 -6 6 4 10 17 8 29 -1 12 8 37 21 55 24 33
37 121 19 121 -4 0 -8 -20 -8 -45z"/>
<path d="M680 1518 c0 -4 12 -44 26 -90 28 -87 57 -152 81 -179 7 -9 13 -23
11 -30 -2 -9 7 -14 25 -15 17 -1 27 4 27 13 0 9 5 11 13 7 6 -4 -14 18 -45 50
-32 31 -57 60 -57 64 1 4 1 14 0 22 -1 13 -2 13 -12 0 -8 -11 -9 -8 -5 15 4
19 3 25 -2 16 -7 -9 -13 3 -22 40 -11 45 -40 109 -40 87z m110 -234 c0 -8 13
-22 30 -33 16 -10 27 -21 23 -24 -12 -13 -20 -7 -47 31 -27 39 -33 58 -16 47
6 -3 10 -13 10 -21z"/>
<path d="M1135 1498 c-4 -13 -7 -39 -6 -59 2 -30 -1 -37 -21 -43 -22 -7 -22
-7 -3 -15 14 -6 21 -4 23 5 2 8 7 14 10 14 4 0 8 17 9 37 1 20 4 47 8 60 7 30
-10 30 -20 1z"/>
<path d="M1620 1510 c0 -6 -7 -10 -15 -10 -9 0 -18 -7 -21 -15 -4 -8 -12 -15
-20 -15 -8 0 -14 -4 -14 -10 0 -16 18 -11 32 8 7 11 26 23 42 29 24 7 27 11
13 16 -9 3 -17 2 -17 -3z"/>
<path d="M2023 1513 c-7 -2 -13 -11 -13 -19 0 -8 -7 -11 -17 -8 -14 5 -15 4
-4 -4 8 -6 11 -17 7 -28 -4 -13 0 -11 13 6 16 19 36 63 28 59 -1 0 -8 -3 -14
-6z"/>
<path d="M1840 1497 c0 -8 -11 -24 -25 -37 -25 -24 -33 -50 -15 -50 5 0 7 6 4
14 -3 8 8 19 28 29 18 9 28 17 21 17 -6 0 -9 9 -6 20 3 11 3 20 -1 20 -3 0 -6
-6 -6 -13z"/>
<path d="M1074 1468 c5 -41 13 -58 26 -58 11 0 -5 69 -20 84 -8 8 -10 1 -6
-26z"/>
<path d="M886 1473 c-4 -9 -1 -20 6 -25 10 -6 10 -10 -2 -18 -13 -8 -12 -12 7
-30 13 -11 21 -17 18 -14 -2 4 3 13 11 21 8 8 12 18 9 23 -3 5 -1 11 5 15 6 3
13 -1 16 -9 3 -9 10 -13 15 -10 14 8 11 24 -5 24 -7 0 -16 9 -19 21 -4 13 -10
18 -17 14 -9 -6 -9 -10 1 -16 10 -6 11 -9 2 -9 -7 0 -13 -11 -13 -24 0 -14 -5
-28 -10 -31 -7 -4 -9 8 -5 34 5 41 -8 64 -19 34z"/>
<path d="M1902 1455 c-11 -13 -21 -23 -23 -22 -3 1 -1 -2 3 -7 4 -5 21 5 38
23 21 20 26 31 16 31 -8 0 -23 -11 -34 -25z"/>
<path d="M1931 1425 c-18 -25 -40 -45 -49 -45 -15 1 -15 2 2 15 17 13 17 15 4
15 -16 0 -58 -49 -58 -66 0 -5 7 1 15 13 9 12 22 20 29 17 20 -8 53 12 61 37
5 16 10 18 21 8 8 -6 14 -10 15 -8 4 20 3 59 -1 59 -4 0 -21 -20 -39 -45z"/>
<path d="M1215 1420 c-3 -5 -3 -10 2 -10 10 0 -19 -20 -30 -20 -5 0 -5 5 -1
11 4 7 1 10 -7 7 -8 -3 -14 -13 -14 -24 0 -10 -5 -18 -12 -17 -18 4 -34 -30
-22 -48 7 -12 9 -12 9 2 0 19 34 52 43 42 4 -3 7 -1 7 5 0 7 9 12 20 12 15 0
20 7 20 25 0 27 -5 31 -15 15z"/>
<path d="M943 1398 c-17 -21 -26 -58 -14 -58 6 0 11 8 11 18 0 10 5 23 12 30
6 6 9 14 6 17 -3 3 -10 0 -15 -7z"/>
<path d="M962 1381 c-9 -26 -7 -35 16 -65 15 -19 33 -35 40 -36 7 0 -1 14 -19
31 -25 24 -29 33 -19 42 10 9 14 9 17 -1 3 -6 9 -10 14 -6 5 3 9 -4 9 -15 0
-19 8 -25 28 -18 4 1 5 7 3 12 -2 6 -5 17 -6 25 -2 8 -4 17 -5 20 -1 3 -2 7
-2 10 0 3 -10 7 -24 8 -13 1 -24 -3 -24 -9 0 -5 -5 -7 -11 -4 -6 5 -4 12 8 21
16 12 16 13 1 14 -9 0 -20 -13 -26 -29z"/>
<path d="M1955 1360 c-9 -10 -22 -18 -27 -17 -6 1 -14 -8 -19 -20 -4 -13 -6
-23 -3 -23 12 0 68 53 70 66 3 18 0 18 -21 -6z"/>
<path d="M1303 1337 c-24 -6 -43 -14 -43 -18 0 -12 37 -11 45 1 4 6 10 8 14 6
8 -5 38 11 31 17 -3 2 -24 -1 -47 -6z"/>
<path d="M2024 1315 c-52 -52 -95 -85 -103 -81 -5 3 -11 -1 -15 -9 -3 -8 -12
-15 -19 -15 -8 0 -20 -7 -27 -15 -7 -8 -16 -12 -21 -9 -5 3 -9 0 -9 -6 0 -7 8
-9 22 -4 21 6 22 5 8 -11 -14 -17 -14 -17 8 -6 12 7 20 16 17 20 -3 5 2 12 11
15 12 4 15 2 10 -9 -3 -8 -1 -15 4 -15 5 0 12 11 16 24 3 15 15 27 30 30 13 4
24 13 24 21 0 8 7 15 15 15 9 0 20 11 25 25 5 14 12 25 15 25 3 0 3 -11 -1
-25 -4 -15 -2 -25 5 -25 10 0 15 14 12 33 0 4 4 7 9 7 6 0 10 8 10 18 0 24
-20 23 -46 -3z"/>
<path d="M1556 1305 c-20 -14 -41 -25 -46 -25 -6 0 -10 -7 -10 -15 0 -8 -7
-15 -16 -15 -9 0 -12 5 -8 13 5 8 2 7 -9 -2 -10 -8 -20 -11 -23 -8 -4 3 -13 0
-20 -8 -8 -7 -23 -11 -34 -8 -11 3 -20 1 -20 -5 0 -6 -9 -13 -19 -17 -11 -3
-22 -13 -25 -22 -8 -19 8 -40 18 -24 4 6 2 11 -4 11 -6 0 -8 5 -4 11 3 6 15 9
25 6 10 -3 19 -1 21 4 2 5 17 12 33 15 17 3 35 7 40 9 45 14 55 19 55 31 0 8
3 13 8 12 4 -1 27 12 51 30 52 38 41 44 -13 7z"/>
<path d="M840 1315 c0 -6 5 -16 11 -22 6 -6 17 -28 24 -49 8 -22 18 -38 23
-37 5 1 10 -9 10 -22 0 -25 37 -85 53 -85 5 0 12 0 17 -1 4 0 13 -11 20 -25 7
-13 18 -24 25 -24 14 0 67 -57 67 -71 0 -5 -5 -9 -12 -9 -6 0 -8 -3 -4 -7 13
-14 67 -9 61 5 -3 9 6 11 38 6 23 -3 83 -7 132 -8 50 -1 101 -6 113 -10 20 -7
23 -5 20 11 -2 13 -11 17 -31 15 -17 -2 -27 1 -27 10 0 8 -3 9 -8 3 -11 -15
-138 -16 -207 -3 -33 7 -63 11 -67 10 -5 -1 -8 4 -8 12 0 7 -10 16 -21 19 -14
4 -20 11 -16 21 3 8 1 18 -5 22 -7 4 -8 3 -4 -4 4 -7 2 -12 -4 -12 -6 0 -14 8
-17 18 -4 9 -16 25 -28 35 -11 10 -14 16 -7 12 7 -4 12 0 12 10 0 9 -4 14 -9
10 -6 -3 -14 3 -20 12 -9 16 -10 14 -11 -10 0 -17 -4 -26 -10 -22 -6 4 -8 10
-5 15 6 10 -21 76 -34 85 -16 9 -41 67 -34 78 4 6 1 7 -7 2 -7 -4 -16 -2 -21
6 -5 8 -9 9 -9 4z"/>
<path d="M1215 1313 c-24 -6 -45 -22 -45 -34 0 -5 7 -6 15 -3 8 4 12 10 9 15
-3 5 9 9 25 9 17 0 31 5 31 10 0 10 -3 11 -35 3z"/>
<path d="M1722 1273 c-18 -18 -29 -33 -25 -33 15 0 66 46 62 56 -2 5 -19 -6
-37 -23z"/>
<path d="M1053 1293 c-16 -6 -17 -29 -3 -46 29 -35 44 -52 36 -40 -8 13 2 17
34 14 13 -2 13 -1 0 8 -8 5 -12 12 -9 16 7 6 49 -28 49 -40 0 -4 -7 -5 -15 -1
-22 8 -18 -2 6 -15 13 -7 19 -7 15 -1 -3 6 -2 13 4 17 5 3 10 11 10 16 0 6 -4
8 -9 4 -6 -3 -15 4 -21 15 -6 11 -17 20 -24 20 -8 0 -16 6 -19 14 -6 15 -35
25 -54 19z"/>
<path d="M1339 1283 c-12 -15 -12 -16 1 -8 8 4 12 4 7 0 -12 -14 -37 -15 -37
-2 0 7 -4 5 -10 -3 -5 -8 -17 -15 -27 -15 -10 0 -19 -9 -21 -20 -3 -17 -1 -17
7 -5 10 13 11 13 11 0 0 -10 3 -11 8 -4 4 7 25 14 48 16 23 3 46 8 53 12 17
11 13 27 -6 24 -10 -2 -17 3 -15 10 3 17 -3 15 -19 -5z"/>
<path d="M1853 1281 c-17 -11 -35 -17 -39 -13 -4 4 -4 1 0 -5 4 -7 3 -13 -2
-13 -6 0 -13 -7 -16 -15 -5 -13 -1 -12 19 2 13 10 25 21 25 26 0 4 9 7 19 7
10 0 21 7 25 15 7 19 7 19 -31 -4z"/>
<path d="M1757 1262 c-19 -21 -22 -38 -7 -47 6 -4 7 1 3 11 -4 11 -2 15 4 11
6 -4 13 3 16 15 8 29 4 32 -16 10z"/>
<path d="M1195 1260 c-4 -6 -11 -7 -17 -4 -7 4 -8 2 -4 -5 4 -6 12 -9 17 -6 5
4 9 -1 9 -10 0 -22 34 -15 38 7 2 13 -2 15 -19 11 -15 -4 -20 -3 -15 5 4 7 5
12 2 12 -3 0 -8 -5 -11 -10z"/>
<path d="M2393 1233 c-7 -3 -13 -20 -13 -39 0 -19 -3 -34 -7 -34 -5 0 -9 -26
-11 -57 -3 -62 -21 -108 -58 -148 -13 -14 -23 -29 -23 -33 5 -31 -5 -53 -30
-68 -17 -10 -28 -21 -25 -25 2 -4 -9 -22 -25 -40 -17 -18 -28 -36 -25 -41 3
-4 1 -8 -5 -8 -5 0 -20 -17 -32 -37 -13 -21 -29 -44 -36 -51 -7 -8 -18 -23
-24 -34 -11 -20 -12 -20 -35 8 -13 16 -34 46 -46 67 -25 43 -46 51 -24 8 9
-16 12 -32 8 -36 -4 -5 -2 -5 4 -2 7 4 20 -5 30 -21 9 -15 25 -33 33 -40 12
-10 13 -15 4 -18 -7 -3 -13 -12 -13 -20 0 -8 -7 -14 -16 -14 -8 0 -13 -4 -9
-9 3 -6 -7 -33 -22 -60 -26 -48 -43 -64 -43 -41 0 6 -8 10 -17 10 -15 0 -16
-2 -3 -10 10 -6 11 -10 3 -10 -7 0 -13 -4 -13 -10 0 -5 6 -7 14 -4 8 3 17 0
22 -7 4 -8 3 -10 -4 -5 -12 7 -21 -22 -19 -64 0 -14 -3 -42 -7 -63 -5 -26 -4
-37 3 -33 5 4 17 -6 25 -21 14 -26 15 -26 16 -6 0 12 5 25 10 28 13 8 13 35 1
35 -5 0 -13 -9 -16 -21 -5 -16 -10 -18 -21 -8 -7 6 -11 16 -7 23 4 6 9 30 10
53 3 43 39 117 53 108 4 -2 6 9 4 25 -3 21 1 30 11 30 8 0 15 9 15 19 0 11 9
26 20 34 11 8 17 17 13 20 -3 4 -1 7 5 7 7 0 12 7 12 15 0 8 9 24 20 35 11 11
20 24 20 29 0 5 6 16 13 23 12 13 19 22 83 116 20 29 46 60 58 70 11 9 23 28
24 42 2 14 20 44 40 68 21 23 47 61 59 83 l22 41 7 -39 c3 -21 10 -45 15 -53
15 -27 11 13 -7 61 -9 24 -19 64 -21 89 -3 25 -10 49 -17 53 -6 5 0 5 14 1 38
-10 60 -34 60 -67 0 -31 19 -71 61 -127 15 -19 29 -45 33 -57 4 -11 13 -24 21
-27 8 -3 15 -15 15 -26 0 -12 4 -19 9 -15 6 3 18 -3 28 -14 30 -32 135 -101
144 -95 14 8 -1 26 -17 20 -8 -3 -14 -1 -14 3 0 5 -17 19 -37 32 -57 33 -90
67 -141 143 -68 99 -83 127 -84 150 -1 40 -20 76 -44 82 -14 4 -28 12 -32 19
-4 6 -13 10 -19 8z m7 -130 c0 -16 -8 -37 -17 -48 -15 -19 -15 -19 -8 10 4 17
7 38 7 48 0 9 3 17 9 17 5 0 9 -12 9 -27z"/>
<path d="M2211 1219 c-13 -5 -21 -12 -18 -15 9 -9 68 7 61 17 -6 11 -12 11
-43 -2z"/>
<path d="M1540 1190 c0 -7 -7 -10 -15 -7 -8 4 -17 2 -20 -4 -4 -5 -11 -7 -16
-4 -5 4 -9 2 -9 -3 0 -15 69 -10 74 5 3 7 1 15 -4 18 -6 4 -10 1 -10 -5z"/>
<path d="M1610 1185 c-7 -8 -15 -13 -19 -11 -3 2 -12 -3 -20 -11 -12 -13 -11
-14 10 -8 27 8 55 32 47 40 -3 3 -11 -1 -18 -10z"/>
<path d="M1997 1183 c-4 -3 -7 -20 -7 -37 0 -23 3 -27 9 -16 6 8 8 17 5 21 -2
4 0 10 6 14 5 3 10 10 10 16 0 10 -14 12 -23 2z"/>
<path d="M1283 1166 c8 -19 -3 -28 -19 -15 -9 8 -15 5 -24 -10 -8 -15 -8 -21
0 -21 6 0 9 -4 6 -8 -4 -7 -51 -8 -51 -2 0 1 -12 3 -27 4 -14 0 -30 4 -34 9
-14 13 -27 7 -15 -7 16 -19 82 -29 134 -20 38 6 40 8 20 17 -13 5 -23 14 -23
19 0 12 14 10 29 -4 11 -11 12 -10 6 1 -6 10 -4 13 6 9 10 -4 15 1 16 12 1 10
-5 21 -14 24 -10 4 -13 2 -10 -8z"/>
<path d="M1423 1154 c-3 -9 -13 -14 -24 -11 -11 3 -19 1 -19 -5 0 -6 -7 -8
-15 -4 -8 3 -15 1 -15 -4 0 -6 -7 -10 -15 -10 -8 0 -15 -7 -15 -15 0 -19 14
-19 30 0 7 9 20 15 29 13 21 -3 91 21 91 32 0 7 -23 20 -36 20 -3 0 -7 -7 -11
-16z"/>
<path d="M1692 1149 c-13 -5 -29 -6 -35 -2 -6 4 -8 0 -4 -10 5 -14 2 -16 -16
-12 -12 3 -42 -1 -66 -9 -24 -9 -46 -14 -50 -12 -3 2 -12 -2 -19 -10 -11 -12
-10 -14 5 -15 10 -1 23 0 28 1 6 1 20 2 33 2 12 0 22 4 22 9 0 5 7 5 17 2 12
-5 14 -3 8 7 -6 10 0 11 29 6 33 -6 36 -5 37 16 0 16 2 19 7 8 9 -19 29 -23
35 -6 9 22 -6 34 -31 25z"/>
<path d="M1806 1153 c-4 -5 -11 -8 -14 -9 -4 0 -18 -6 -32 -12 -25 -12 -25
-12 5 -8 39 5 65 16 65 27 0 11 -14 12 -24 2z"/>
<path d="M2114 1127 c-51 -58 -57 -68 -45 -80 8 -8 11 -6 11 10 0 11 14 35 32
52 17 17 29 33 27 36 -3 2 -14 -6 -25 -18z"/>
<path d="M1860 1120 c-6 -12 -19 -18 -35 -17 -13 1 -23 -2 -22 -8 1 -5 8 -9
16 -8 8 1 25 -3 37 -7 15 -6 26 -5 30 2 4 7 3 8 -4 4 -8 -5 -10 2 -6 24 7 34
0 39 -16 10z"/>
<path d="M1058 1118 c12 -6 22 -16 22 -22 0 -6 4 -4 9 4 13 20 4 30 -27 29
-27 0 -27 0 -4 -11z"/>
<path d="M1982 1084 c-7 -14 -17 -22 -22 -19 -6 4 -8 11 -5 16 4 5 2 9 -2 9
-5 0 -9 -18 -8 -41 0 -32 2 -37 10 -23 6 9 17 25 26 34 19 20 31 50 20 50 -4
0 -13 -12 -19 -26z"/>
<path d="M1455 1090 c-4 -6 -16 -8 -27 -4 -14 4 -18 3 -13 -5 8 -14 -13 -43
-26 -35 -5 3 -16 -1 -24 -9 -8 -9 -20 -17 -27 -20 -7 -2 -11 -7 -8 -10 3 -3
24 3 48 14 23 11 47 17 51 14 5 -3 7 4 4 15 -5 20 12 29 19 10 2 -6 15 -6 33
-2 l30 9 -28 7 c-15 3 -25 11 -22 16 3 6 4 10 1 10 -3 0 -8 -5 -11 -10z"/>
<path d="M2180 1075 c0 -9 -7 -18 -15 -21 -8 -4 -12 -10 -9 -15 3 -5 -7 -12
-23 -15 -23 -5 -28 -11 -29 -37 -1 -28 0 -29 12 -12 8 10 14 23 14 29 0 5 3 6
7 3 3 -4 19 7 34 25 24 26 31 29 44 18 10 -8 15 -9 15 -1 0 6 -4 11 -10 11 -5
0 -10 7 -10 15 0 8 -7 15 -15 15 -8 0 -15 -7 -15 -15z"/>
<path d="M840 1070 c0 -5 -5 -10 -11 -10 -17 0 -129 -88 -129 -102 0 -5 24 10
52 33 57 44 94 64 117 60 13 -2 13 0 2 13 -15 18 -31 21 -31 6z"/>
<path d="M1780 1065 c0 -18 -4 -18 -48 -6 -26 8 -32 7 -32 -6 0 -13 -2 -14
-17 -2 -11 10 -14 10 -9 2 7 -13 -7 -17 -44 -15 -17 1 -31 -18 -23 -31 3 -5 9
-4 13 3 4 7 19 13 34 13 14 1 26 5 26 8 0 3 6 6 13 7 6 0 23 3 37 6 24 6 24 6
-2 -4 -14 -6 -29 -18 -32 -26 -6 -16 9 -19 19 -4 4 6 10 8 15 5 5 -3 15 1 23
10 13 12 17 12 26 1 9 -10 9 -16 1 -21 -6 -3 -7 -11 -4 -17 5 -7 11 -2 16 12
6 16 5 26 -4 32 -9 5 -9 8 -2 8 18 0 25 28 8 34 -8 3 -14 -1 -14 -9z"/>
<path d="M2472 1028 c5 -18 9 -52 8 -75 0 -24 3 -43 7 -43 12 0 13 81 2 118
-6 17 -14 32 -19 32 -5 0 -4 -15 2 -32z"/>
<path d="M1810 1027 c0 -18 2 -19 10 -7 7 11 10 11 10 2 0 -7 5 -10 11 -7 14
9 6 28 -14 31 -12 1 -17 -5 -17 -19z"/>
<path d="M1991 1037 c-13 -16 -5 -27 21 -27 10 0 18 7 18 16 0 14 -3 14 -15 4
-13 -11 -14 -10 -9 4 7 19 1 21 -15 3z"/>
<path d="M898 1033 c-20 -5 -25 -24 -5 -20 6 1 11 -5 9 -13 -2 -8 -4 -22 -5
-30 0 -9 -10 -17 -21 -18 -21 -1 -38 -21 -30 -34 3 -4 -2 -8 -10 -8 -9 0 -16
-5 -16 -11 0 -8 -4 -8 -13 -1 -10 8 -13 6 -14 -9 -2 -21 -1 -21 65 23 23 16
43 25 43 21 1 -4 5 8 8 27 4 19 12 34 18 33 6 -1 9 6 6 17 -6 24 -12 28 -35
23z"/>
<path d="M831 985 c-22 -24 -24 -24 -38 -8 -13 17 -14 17 -5 -2 8 -14 6 -22
-6 -32 -15 -12 -15 -12 3 -5 67 27 96 44 93 54 -7 21 -22 18 -47 -7z"/>
<path d="M1039 1003 c-1 -5 -1 -12 0 -17 1 -5 -7 -6 -18 -3 -19 5 -39 -19 -26
-31 3 -3 5 0 5 6 0 7 13 12 28 12 21 0 28 5 28 20 0 19 -15 29 -17 13z"/>
<path d="M1840 992 c-19 -9 -36 -23 -37 -29 -3 -14 13 -18 19 -5 2 4 19 17 38
30 42 26 29 29 -20 4z"/>
<path d="M1961 999 c-12 -5 -19 -14 -16 -20 5 -8 10 -8 18 0 14 14 30 14 22 1
-3 -6 4 -10 17 -10 17 0 19 3 9 9 -11 7 -11 9 0 13 9 3 6 6 -7 10 -11 3 -30 1
-43 -3z"/>
<path d="M1900 980 c0 -11 -5 -20 -11 -20 -5 0 -7 6 -3 13 5 8 2 8 -9 -2 -25
-20 -21 -28 14 -23 20 3 29 9 25 18 -3 8 -1 14 4 14 6 0 10 5 10 10 0 6 -7 10
-15 10 -8 0 -15 -9 -15 -20z"/>
<path d="M1570 969 c0 -14 -6 -19 -17 -18 -30 5 -77 -11 -66 -22 6 -6 20 -6
38 1 16 6 34 9 41 6 8 -3 16 -2 18 3 3 4 24 9 48 10 24 2 49 3 56 4 6 0 12 4
12 9 0 4 8 8 17 8 9 0 14 2 11 5 -3 3 -25 1 -49 -4 -31 -7 -47 -7 -58 2 -12 9
-13 9 -7 0 5 -9 0 -13 -13 -13 -14 0 -19 5 -15 15 4 8 1 15 -5 15 -6 0 -11 -9
-11 -21z"/>
<path d="M2410 973 c0 -9 -3 -13 -7 -10 -9 10 -49 -81 -56 -127 -8 -48 2 -40
22 20 9 25 21 46 26 46 14 -1 34 38 35 66 0 12 -4 22 -10 22 -5 0 -10 -7 -10
-17z"/>
<path d="M2517 955 c-4 -16 -3 -51 1 -77 7 -38 6 -50 -5 -60 -11 -9 -17 -9
-25 3 -8 11 -9 11 -4 -3 3 -10 1 -18 -4 -18 -6 0 -10 -5 -10 -10 0 -6 13 -4
30 5 35 18 57 19 57 2 0 -7 3 -25 7 -41 6 -23 4 -27 -8 -23 -17 7 -22 -8 -6
-18 5 -3 20 3 32 14 12 12 25 21 30 21 4 0 8 7 8 15 0 7 8 19 18 24 15 9 15
10 1 11 -9 0 -19 -6 -22 -14 -3 -8 -16 -20 -28 -26 -20 -11 -21 -10 -17 19 2
17 1 31 -4 31 -4 0 -8 10 -8 23 0 18 -2 19 -10 7 -8 -11 -9 -7 -4 14 5 22 4
27 -6 21 -7 -5 -11 -4 -8 1 3 5 2 32 -1 59 -6 46 -7 48 -14 20z"/>
<path d="M740 945 c-6 -8 -9 -19 -5 -24 3 -6 -10 -21 -29 -33 -20 -13 -36 -27
-36 -32 0 -5 8 -2 18 5 55 43 72 59 62 59 -8 0 -8 6 0 20 13 23 8 26 -10 5z"/>
<path d="M1464 945 c-4 -8 -10 -13 -14 -10 -5 3 -11 1 -15 -5 -4 -6 -11 -8
-16 -5 -5 3 -6 -2 -2 -11 4 -11 3 -15 -5 -10 -6 4 -18 -5 -28 -21 -9 -15 -39
-61 -66 -101 -28 -40 -48 -76 -45 -79 3 -2 18 14 33 37 16 23 30 37 32 31 2
-7 11 -3 23 10 18 21 24 41 19 64 -1 5 8 1 19 -9 12 -11 24 -16 28 -13 3 4 1
7 -6 7 -7 0 2 18 19 40 17 22 29 40 25 40 -4 0 0 11 9 25 9 14 12 25 6 25 -6
0 -13 -7 -16 -15z"/>
<path d="M2132 953 c-6 -2 -9 -9 -6 -14 3 -6 -1 -21 -10 -34 -12 -18 -12 -25
-3 -28 9 -4 9 -6 0 -6 -7 -1 -13 -6 -13 -12 0 -8 4 -8 14 1 8 6 12 19 9 27 -5
13 -2 15 13 9 15 -5 16 -4 7 5 -8 8 -9 19 -3 35 5 13 8 24 7 23 -1 0 -8 -3
-15 -6z"/>
<path d="M595 920 c-33 -15 -94 -38 -135 -51 -79 -23 -184 -57 -210 -67 -8 -3
-19 -7 -25 -7 -5 -1 -17 -5 -25 -8 -8 -3 -32 -8 -52 -12 -21 -3 -40 -11 -44
-17 -4 -7 -3 -8 4 -4 7 4 12 2 12 -3 0 -14 -27 -14 -32 0 -2 6 -11 7 -22 3
-19 -7 -19 -8 0 -15 15 -5 9 -9 -23 -14 -24 -4 -43 -11 -43 -16 0 -13 -2 -13
146 36 149 50 156 51 148 30 -4 -8 -1 -15 6 -15 6 0 10 10 8 21 -3 19 9 25
101 55 58 19 113 34 122 34 10 0 21 5 24 10 5 8 11 7 20 0 15 -12 35 -6 35 10
0 5 -7 7 -15 4 -27 -11 -16 5 15 21 17 9 36 13 42 9 6 -4 8 -3 4 4 -3 6 3 12
16 15 19 4 20 4 3 5 -11 0 -47 -12 -80 -28z"/>
<path d="M1335 934 c-37 -19 -58 -38 -31 -28 44 17 90 43 76 44 -8 0 -28 -7
-45 -16z"/>
<path d="M1696 937 c-16 -12 -16 -14 -2 -14 9 0 16 3 16 7 0 4 7 7 15 7 8 0
15 -4 15 -9 0 -5 5 -6 11 -2 8 4 7 9 -2 15 -19 12 -32 11 -53 -4z"/>
<path d="M1798 929 c17 -12 32 -26 32 -32 0 -6 3 -8 6 -4 6 6 38 -29 67 -75
13 -21 13 -27 3 -31 -7 -3 -12 -18 -11 -35 1 -18 -3 -29 -11 -28 -14 1 -134
-110 -134 -125 0 -6 14 -1 30 11 17 12 28 26 24 31 -3 5 -2 8 3 7 12 -4 63 38
63 51 0 6 9 11 20 11 11 0 20 7 20 16 0 9 5 12 12 8 6 -4 8 -3 4 4 -10 16 15
27 26 11 8 -12 9 -11 5 1 -2 8 -12 15 -23 15 -10 0 -17 5 -14 10 3 6 8 9 13 8
11 -4 8 7 -5 22 -7 7 -29 36 -48 63 -19 28 -50 57 -68 66 -46 22 -53 20 -14
-5z"/>
<path d="M2077 937 c-4 -10 -11 -15 -17 -12 -5 3 -7 0 -4 -9 3 -9 -3 -19 -16
-26 -11 -6 -18 -15 -15 -21 4 -5 -1 -9 -9 -9 -10 0 -16 9 -16 22 0 21 0 21
-14 2 -18 -24 -10 -33 32 -36 17 -1 32 -6 32 -10 0 -4 8 -8 18 -8 14 0 15 2 2
10 -13 8 -12 10 3 10 10 0 15 5 12 11 -4 6 -13 8 -20 5 -25 -9 -24 6 1 29 14
13 24 32 22 42 -3 17 -4 17 -11 0z"/>
<path d="M998 923 c6 -2 10 -9 6 -14 -3 -5 2 -9 10 -9 9 0 19 0 23 -1 4 0 9 5
12 12 2 6 -1 9 -7 5 -6 -3 -13 -2 -17 4 -3 5 -14 10 -23 9 -11 0 -12 -2 -4 -6z"/>
<path d="M894 904 c3 -8 6 -19 6 -22 0 -4 5 0 10 8 9 13 12 12 25 -4 8 -11 15
-30 15 -42 0 -13 4 -25 8 -28 5 -3 5 17 -1 45 -5 27 -12 47 -14 45 -3 -3 -16
0 -30 5 -21 8 -24 7 -19 -7z"/>
<path d="M1736 893 c-4 -4 -17 -8 -29 -8 -12 0 -23 -7 -25 -17 -2 -10 2 -18 8
-18 7 0 9 7 6 16 -5 13 -1 14 24 9 23 -5 30 -3 30 9 0 18 -3 20 -14 9z"/>
<path d="M1765 880 c3 -6 -1 -13 -9 -16 -23 -9 -10 -23 14 -17 13 4 30 -3 44
-16 18 -17 26 -19 32 -10 4 7 3 14 -4 17 -7 2 -12 10 -12 18 0 8 -7 14 -15 14
-8 0 -15 5 -15 10 0 6 -9 10 -21 10 -11 0 -17 -5 -14 -10z"/>
<path d="M1621 871 c-8 -5 -10 -18 -5 -35 4 -16 9 -24 13 -19 3 5 14 12 24 16
23 8 22 42 -1 44 -10 1 -24 -2 -31 -6z"/>
<path d="M604 856 c-10 -8 -19 -19 -19 -25 0 -6 -3 -11 -7 -11 -5 0 -13 0 -19
0 -6 0 -8 7 -5 16 3 8 2 12 -4 9 -14 -9 -12 -32 3 -39 10 -5 10 -7 0 -12 -7
-3 -13 -13 -13 -21 0 -12 5 -10 21 8 12 13 25 23 29 22 5 -2 7 7 5 18 -3 14 3
23 20 29 14 5 25 12 25 15 0 9 -16 5 -36 -9z"/>
<path d="M911 848 c-1 -16 -9 -32 -21 -38 -20 -11 -28 -40 -10 -40 5 0 6 7 3
17 -4 11 -3 14 5 9 7 -4 12 -2 12 6 0 9 3 9 10 -2 5 -8 10 -27 10 -42 0 -16 4
-28 8 -28 5 0 5 26 0 58 -11 78 -15 92 -17 60z"/>
<path d="M1524 842 c-4 -15 -10 -19 -18 -13 -7 5 -21 5 -36 -2 -22 -9 -23 -11
-6 -15 10 -2 22 2 27 10 6 9 9 7 9 -9 0 -12 -5 -23 -12 -25 -9 -3 -9 -6 1 -12
8 -5 14 -1 18 13 7 28 29 21 26 -8 -2 -13 3 -21 13 -21 8 0 13 4 10 9 -3 5 1
11 9 15 8 3 15 11 15 18 0 9 -3 9 -10 -2 -9 -13 -11 -13 -19 0 -5 8 -7 18 -5
22 3 4 0 16 -5 25 -10 16 -11 16 -17 -5z"/>
<path d="M719 834 c-7 -8 -26 -23 -43 -32 -24 -12 -27 -17 -13 -20 9 -2 15 -8
12 -13 -3 -5 1 -6 10 -2 12 4 13 8 5 13 -9 6 -9 9 0 15 7 4 16 2 20 -5 5 -9 9
-9 14 -1 4 6 2 11 -5 11 -8 0 -8 4 1 15 7 8 16 15 21 15 5 0 9 -7 9 -15 0 -8
4 -15 9 -15 5 0 8 8 6 18 -2 9 -4 20 -4 25 -2 13 -28 8 -42 -9z"/>
<path d="M2294 784 c-20 -65 -32 -166 -19 -152 4 3 8 27 10 53 3 27 12 67 21
90 9 24 14 51 12 61 -1 9 -12 -14 -24 -52z"/>
<path d="M497 807 c-3 -8 -1 -19 5 -25 6 -6 -4 -19 -31 -38 -56 -40 -52 -51 4
-13 38 25 44 35 40 56 -5 32 -11 38 -18 20z"/>
<path d="M823 789 c8 -21 11 -42 6 -50 -4 -8 -4 -21 1 -29 6 -10 11 -2 16 25
5 26 3 40 -5 43 -6 2 -9 7 -6 12 3 4 -2 14 -11 21 -15 12 -15 10 -1 -22z"/>
<path d="M2374 781 c1 -22 4 -37 9 -34 4 2 7 -1 7 -6 0 -15 -27 -14 -34 2 -3
6 -3 2 0 -10 3 -13 1 -23 -5 -23 -6 0 -11 7 -11 15 0 23 -17 18 -24 -7 -3 -13
-6 -41 -5 -63 l0 -40 13 35 c7 21 9 40 4 47 -7 8 -3 10 10 6 18 -4 18 -8 5
-65 -14 -61 -13 -116 2 -70 4 12 11 22 16 22 5 0 9 5 9 11 0 5 -3 8 -7 6 -5
-3 -9 6 -9 19 -1 13 2 24 7 24 5 0 8 3 8 8 -4 26 3 62 11 57 6 -3 14 4 19 17
6 13 10 18 10 11 1 -7 7 -10 14 -8 9 4 12 -7 11 -40 -2 -54 10 -51 13 3 1 20
5 47 8 60 6 16 3 22 -9 22 -9 0 -16 -5 -16 -12 0 -6 -3 -8 -7 -5 -3 4 -12 2
-20 -4 -14 -12 -16 -8 -13 34 1 15 -2 27 -7 27 -5 0 -9 -18 -9 -39z"/>
<path d="M1857 796 c-5 -12 -17 -15 -56 -11 -27 3 -52 1 -56 -4 -3 -6 -12 -8
-19 -5 -9 3 -17 -3 -21 -15 -3 -12 -11 -21 -16 -21 -13 0 -11 -13 6 -36 11
-14 14 -15 9 -2 -4 11 4 22 25 34 16 10 28 21 25 25 -2 4 0 10 5 13 12 8 24
-40 16 -65 -5 -14 -3 -17 9 -13 9 3 16 12 16 20 0 7 8 18 18 24 15 10 14 10
-5 5 -12 -3 -24 -1 -28 5 -3 5 -3 10 2 11 4 0 21 2 38 4 16 2 35 -1 43 -7 10
-9 12 -6 10 15 -5 33 -14 43 -21 23z"/>
<path d="M2343 787 c-23 -10 -40 -38 -21 -34 13 2 51 37 46 42 -1 1 -13 -2
-25 -8z"/>
<path d="M583 764 c-13 -14 -27 -23 -33 -19 -5 3 -10 -1 -10 -9 0 -9 3 -16 8
-16 12 1 48 34 55 53 8 22 6 22 -20 -9z"/>
<path d="M2803 777 c2 -7 11 -11 21 -9 9 2 16 -2 16 -9 0 -6 7 -9 15 -5 8 3
15 1 15 -4 0 -6 6 -10 14 -10 8 0 37 -15 65 -34 28 -19 51 -31 51 -26 0 9 -94
72 -125 84 -53 21 -76 25 -72 13z"/>
<path d="M1450 770 c0 -5 0 -13 1 -17 0 -4 -9 -10 -20 -15 -22 -8 -29 -28 -10
-28 5 0 7 5 4 10 -3 6 4 10 16 10 18 0 19 -2 9 -15 -7 -8 -8 -15 -2 -15 5 0
15 7 22 15 10 12 10 15 -1 15 -10 0 -10 3 -2 11 6 6 9 18 6 25 -6 16 -23 19
-23 4z"/>
<path d="M404 749 c-10 -11 -31 -28 -46 -37 -16 -9 -28 -20 -28 -25 0 -12 61
25 68 41 4 11 6 11 13 0 7 -10 9 -9 9 5 0 10 4 15 10 12 6 -3 7 1 4 9 -8 20
-7 20 -30 -5z"/>
<path d="M630 749 c-14 -10 -30 -23 -37 -29 -6 -5 -31 -20 -55 -32 -24 -12
-66 -37 -95 -55 -29 -18 -57 -33 -63 -33 -5 0 -10 -5 -10 -10 0 -10 30 5 125
62 17 10 36 18 43 18 7 0 25 11 40 25 15 14 32 25 38 25 12 0 49 38 43 44 -2
2 -15 -4 -29 -15z"/>
<path d="M2640 760 c0 -6 5 -10 11 -10 8 0 8 -5 -1 -15 -10 -12 -10 -15 3 -15
8 0 20 6 26 13 8 11 5 16 -14 25 -15 7 -25 8 -25 2z"/>
<path d="M776 733 c4 -16 8 -30 10 -32 2 -2 -1 -12 -7 -22 -5 -11 -6 -19 -1
-19 5 0 10 -30 11 -67 2 -82 11 -97 12 -22 0 30 2 77 3 104 3 51 -7 85 -25 85
-5 0 -7 -12 -3 -27z"/>
<path d="M888 744 c-5 -4 -8 -20 -8 -36 0 -17 -4 -27 -10 -23 -5 3 -10 2 -10
-4 0 -23 21 -20 30 5 12 30 10 71 -2 58z"/>
<path d="M957 736 c-4 -9 -2 -18 3 -21 6 -4 6 -14 -1 -27 -9 -17 -13 -18 -20
-7 -6 9 -9 10 -9 2 0 -20 18 -24 34 -7 11 10 14 24 10 42 -9 34 -10 36 -17 18z"/>
<path d="M1330 737 c0 -7 20 -27 45 -45 25 -17 45 -36 45 -42 0 -6 4 -9 8 -6
4 2 14 1 22 -5 10 -6 11 -9 3 -9 -7 0 -13 -5 -13 -12 0 -9 3 -9 12 0 16 16 18
51 2 45 -6 -2 -37 16 -68 41 -31 26 -56 40 -56 33z"/>
<path d="M1533 731 c-16 -4 -20 -10 -14 -20 6 -9 11 -10 15 -2 4 6 15 11 24
10 10 0 12 -3 5 -5 -21 -9 -87 -74 -75 -74 7 0 12 5 12 10 0 6 6 10 13 10 7 0
19 9 27 20 8 11 20 20 27 20 15 0 17 -12 5 -25 -5 -6 -1 -17 10 -27 21 -21 21
-20 7 37 -12 47 -22 55 -56 46z"/>
<path d="M645 716 c-21 -12 -33 -46 -15 -46 5 0 10 7 10 15 0 7 8 18 17 24 10
5 16 11 13 14 -3 2 -14 -1 -25 -7z"/>
<path d="M308 632 c-59 -42 -110 -83 -113 -90 -4 -11 30 9 70 40 23 19 86 58
93 58 15 0 65 47 61 58 -2 6 -52 -24 -111 -66z"/>
<path d="M693 690 c-3 -11 -9 -18 -13 -15 -5 3 -11 1 -15 -5 -13 -21 18 -9 41
15 18 19 19 25 8 25 -9 0 -18 -9 -21 -20z"/>
<path d="M1305 692 c-12 -10 -20 -29 -20 -46 0 -16 -6 -31 -14 -34 -8 -3 -11
0 -7 7 4 6 3 11 -1 11 -5 0 -14 -14 -20 -31 -13 -33 -39 -31 -30 2 4 16 0 14
-21 -8 -15 -15 -28 -39 -29 -51 -2 -13 -12 -36 -23 -52 -11 -15 -20 -36 -20
-47 0 -12 6 -7 16 15 12 23 23 32 43 33 17 0 21 3 11 7 -22 10 -23 31 -4 59
11 18 18 22 24 13 5 -8 13 -9 26 -2 11 5 30 15 44 21 38 18 64 40 57 47 -4 4
-13 1 -22 -6 -13 -11 -15 -8 -15 19 0 19 4 30 10 26 6 -4 8 -11 5 -16 -4 -5
-2 -9 4 -9 15 0 19 12 12 37 -6 20 -7 21 -26 5z"/>
<path d="M2499 699 c-15 -6 -29 -18 -32 -29 -3 -13 0 -17 9 -13 7 3 12 10 11
16 -2 11 3 13 46 16 10 0 15 6 12 11 -7 12 -11 12 -46 -1z"/>
<path d="M906 643 c3 -21 7 -46 9 -55 2 -10 -2 -18 -8 -18 -7 0 -4 -5 6 -11 9
-5 17 -16 17 -23 0 -8 7 -17 16 -20 26 -10 29 -7 9 8 -10 7 -20 26 -22 42 -8
70 -16 105 -24 109 -4 3 -6 -12 -3 -32z"/>
<path d="M2190 669 c0 -6 -7 -9 -15 -5 -8 3 -15 0 -15 -6 0 -7 -10 -22 -22
-35 -12 -13 -16 -23 -10 -23 7 0 12 5 12 10 0 6 6 10 13 11 15 0 63 59 48 59
-6 0 -11 -5 -11 -11z"/>
<path d="M260 641 c-19 -16 -32 -32 -28 -36 4 -4 21 4 38 19 17 14 28 26 23
27 -4 0 1 4 12 9 14 6 15 9 5 9 -9 1 -31 -12 -50 -28z"/>
<path d="M1535 658 c-4 -10 -12 -15 -19 -11 -7 4 -7 1 1 -7 10 -11 8 -16 -9
-24 -12 -6 -24 -18 -26 -26 -4 -12 -3 -13 10 -3 8 7 18 10 21 6 4 -3 7 -1 7 6
0 8 9 12 23 9 17 -3 22 0 22 18 0 12 -3 20 -7 18 -3 -2 -8 4 -11 13 -4 17 -4
17 -12 1z"/>
<path d="M1868 619 c-20 -20 -40 -34 -43 -31 -3 3 -5 -2 -5 -11 0 -8 -8 -18
-17 -20 -17 -4 -17 -5 0 -6 18 -1 25 -21 7 -21 -5 0 -10 -7 -10 -16 0 -8 -4
-12 -10 -9 -6 3 -7 -1 -4 -9 3 -9 10 -13 16 -10 6 4 7 -8 3 -30 -5 -25 -4 -36
4 -36 7 0 10 -4 7 -8 -3 -5 -6 -27 -7 -50 -2 -35 -5 -39 -17 -29 -13 10 -14 8
-7 -12 5 -18 4 -22 -6 -16 -8 3 -3 -3 11 -16 14 -12 24 -26 22 -31 -1 -5 2 -6
8 -3 8 5 6 15 -5 32 -10 14 -12 22 -6 18 6 -3 11 -3 10 2 -1 4 -1 28 0 53 1
35 4 42 12 30 9 -12 10 -11 4 5 -7 22 -24 109 -22 111 1 0 20 11 43 23 51 29
63 48 55 92 l-6 35 -37 -37z m28 -44 c-2 -7 -13 -12 -23 -11 -10 2 -21 -2 -25
-8 -4 -6 -10 -7 -14 -3 -4 4 5 21 21 37 25 26 30 28 38 15 5 -9 6 -22 3 -30z"/>
<path d="M702 633 c-6 -12 -12 -29 -12 -38 0 -15 1 -15 16 -1 8 9 14 26 12 38
l-3 23 -13 -22z"/>
<path d="M1977 631 c-4 -15 -1 -18 12 -13 14 5 14 3 3 -11 -8 -9 -10 -22 -6
-28 10 -17 24 23 17 50 -7 26 -19 27 -26 2z"/>
<path d="M517 611 c-20 -12 -30 -13 -35 -5 -5 8 -11 7 -22 -4 -13 -14 -12 -15
3 -9 9 3 17 3 17 -2 0 -5 -9 -11 -20 -14 -11 -3 -20 -11 -20 -19 0 -10 3 -9
10 2 5 8 10 12 10 8 0 -4 16 3 35 17 20 13 41 26 48 28 7 2 10 6 7 9 -3 3 -17
-2 -33 -11z"/>
<path d="M1360 621 c0 -5 -7 -17 -16 -25 -13 -14 -13 -16 -1 -16 22 0 29 -28
9 -33 -12 -3 -9 -5 7 -6 16 -1 22 3 18 13 -3 8 -1 17 6 20 7 2 4 5 -6 5 -14 1
-16 5 -7 20 7 13 7 22 0 26 -5 3 -10 2 -10 -4z"/>
<path d="M1668 622 c-10 -2 -18 -8 -18 -13 0 -6 8 -5 20 1 11 6 20 7 20 2 0
-5 9 -19 19 -31 11 -13 17 -30 14 -39 -4 -14 -3 -14 5 -3 6 8 17 11 25 8 9 -3
23 6 36 24 12 16 20 29 17 29 -17 0 -36 -15 -37 -29 0 -9 -3 -11 -5 -4 -3 7
-11 10 -18 7 -15 -6 -40 21 -32 34 7 11 -21 20 -46 14z"/>
<path d="M826 573 c5 -58 14 -69 14 -17 0 29 3 35 10 24 9 -13 10 -13 10 0 0
8 -9 21 -19 27 -18 11 -19 9 -15 -34z"/>
<path d="M1608 606 c-22 -16 -23 -33 -3 -33 8 0 15 9 15 19 0 11 5 16 10 13 6
-3 10 -1 10 4 0 14 -11 13 -32 -3z"/>
<path d="M2457 609 c-9 -6 -21 -8 -26 -5 -5 3 -11 -4 -14 -16 -7 -27 1 -38 13
-19 4 8 21 19 36 26 16 6 24 14 18 17 -5 4 -17 2 -27 -3z"/>
<path d="M2156 595 c-14 -34 -17 -65 -6 -65 12 0 23 41 18 67 -3 17 -4 17 -12
-2z"/>
<path d="M2553 593 c-4 -10 -17 -31 -30 -47 -17 -20 -21 -32 -14 -39 6 -6 12
-9 13 -6 2 2 14 25 27 51 13 26 28 45 34 41 6 -3 7 -1 3 5 -10 17 -26 15 -33
-5z"/>
<path d="M1460 580 c-1 -30 -39 -86 -40 -57 0 9 -3 17 -7 17 -5 0 -9 -22 -9
-50 -1 -27 3 -47 7 -44 5 3 9 9 9 15 0 5 9 18 20 29 11 11 20 28 20 38 0 10 5
23 11 29 8 8 8 16 0 30 -9 16 -10 16 -11 -7z"/>
<path d="M1502 555 c-20 -19 -29 -33 -20 -29 9 3 19 12 22 20 3 8 10 14 15 14
13 0 2 -37 -15 -51 -20 -16 -17 -28 6 -24 17 3 19 -1 14 -28 -2 -18 -1 -26 3
-17 5 8 17 28 28 44 10 16 20 43 21 60 2 29 1 30 -12 12 -8 -11 -14 -33 -14
-49 0 -16 -4 -26 -10 -22 -11 7 -14 58 -3 69 8 8 13 36 7 36 -2 0 -21 -16 -42
-35z"/>
<path d="M2273 577 c-23 -10 -31 -27 -14 -27 5 0 12 -7 14 -15 3 -11 4 -10 3
2 -1 10 5 23 14 30 21 16 10 23 -17 10z"/>
<path d="M300 544 c-57 -45 -77 -67 -28 -31 20 15 41 27 46 27 5 0 17 9 27 20
28 31 5 23 -45 -16z"/>
<path d="M375 555 c-27 -13 -57 -33 -66 -43 -8 -11 -25 -22 -37 -26 -11 -4
-24 -16 -27 -27 -4 -10 -13 -19 -21 -19 -8 0 -14 -7 -14 -16 0 -9 -5 -12 -12
-8 -8 5 -9 2 -4 -11 5 -13 -1 -25 -21 -42 l-28 -24 36 23 c20 12 35 27 33 33
-3 6 9 26 26 44 23 24 37 30 53 26 14 -4 17 -3 10 2 -10 7 -4 18 22 43 28 27
37 31 48 21 10 -10 7 -16 -12 -32 -13 -11 -22 -21 -20 -24 3 -2 25 14 49 36
25 22 35 34 23 27 -18 -10 -25 -10 -35 1 -11 11 -10 13 2 9 8 -3 24 3 34 13
25 24 22 24 -39 -6z"/>
<path d="M745 568 c-4 -10 -11 -15 -16 -12 -5 3 -8 0 -7 -8 2 -7 -3 -12 -9
-10 -7 1 -13 -7 -13 -17 0 -17 4 -15 31 10 17 16 29 34 26 41 -3 9 -7 8 -12
-4z"/>
<path d="M1000 570 c0 -5 7 -10 16 -10 10 0 14 -6 11 -15 -4 -8 -2 -17 4 -21
6 -3 8 -12 5 -20 -3 -7 -1 -16 5 -20 6 -4 8 9 5 37 -4 38 -18 58 -38 59 -5 0
-8 -4 -8 -10z"/>
<path d="M2798 544 c-58 -16 -21 -15 77 1 77 13 78 13 23 12 -31 -1 -76 -7
-100 -13z"/>
<path d="M160 528 c-7 -16 -17 -28 -22 -28 -5 0 -6 5 -3 11 9 13 -93 -58 -117
-83 -36 -35 -16 -29 32 12 27 23 54 39 60 35 14 -9 74 49 68 66 -4 9 -10 5
-18 -13z"/>
<path d="M1066 514 c4 -21 7 -47 6 -56 0 -10 5 -15 12 -12 11 4 11 13 0 51
-18 60 -26 68 -18 17z"/>
<path d="M497 517 c6 -10 -19 -32 -36 -32 -8 0 -16 -7 -18 -15 -4 -12 -3 -13
5 -1 5 7 14 11 20 7 6 -3 14 -1 17 5 4 6 21 19 38 30 l32 19 -32 -3 c-17 -1
-29 -5 -26 -10z"/>
<path d="M1263 516 c-26 -12 -31 -31 -6 -22 9 4 20 2 23 -4 5 -8 9 -6 13 5 4
9 3 13 -3 10 -6 -3 -10 -2 -10 4 0 5 12 12 28 14 25 4 25 4 2 4 -14 0 -35 -4
-47 -11z"/>
<path d="M1368 522 c-22 -4 -22 -12 -3 -38 8 -10 15 -14 14 -9 -1 6 1 18 6 28
9 21 6 25 -17 19z"/>
<path d="M1745 511 c1 -13 7 -26 14 -30 7 -5 12 -10 10 -12 -6 -10 13 -109 20
-105 5 3 5 23 0 43 -5 21 -11 49 -13 63 -3 14 -11 34 -19 44 -13 18 -14 18
-12 -3z"/>
<path d="M2056 509 c-10 -48 -16 -109 -11 -109 6 0 35 56 35 67 0 4 -5 1 -10
-7 -14 -22 -13 5 1 32 7 14 8 23 0 31 -7 7 -11 2 -15 -14z"/>
<path d="M2378 523 c-10 -2 -15 -10 -11 -19 3 -8 0 -21 -7 -29 -8 -9 -8 -15
-2 -15 6 0 17 -3 25 -6 12 -4 14 3 13 35 0 23 -1 40 -1 40 0 -1 -8 -3 -17 -6z"/>
<path d="M2835 511 c-2 -2 -19 -5 -37 -7 -17 -2 -37 -9 -43 -15 -7 -8 -4 -10
10 -6 11 3 36 8 55 11 88 14 123 28 56 24 -21 -2 -39 -5 -41 -7z"/>
<path d="M737 489 c-11 -15 -16 -17 -20 -7 -2 7 -8 10 -12 6 -4 -4 -1 -13 7
-21 11 -12 16 -12 26 0 7 7 10 13 6 13 -3 0 -1 7 6 15 7 8 10 15 7 15 -3 0
-12 -9 -20 -21z"/>
<path d="M2139 485 c-1 -11 -2 -39 -3 -62 0 -24 -4 -43 -8 -43 -5 0 -8 5 -8
10 0 6 -5 10 -11 10 -5 0 -8 -4 -5 -9 3 -4 -1 -16 -8 -26 -7 -10 -11 -27 -8
-38 4 -16 7 -14 18 13 12 27 16 30 29 20 13 -11 15 -8 15 14 0 32 23 59 37 45
6 -6 10 1 10 20 l0 30 -24 -25 -23 -25 0 35 c0 25 5 36 14 36 8 0 17 4 20 9 3
5 -5 8 -19 7 -17 -1 -25 -7 -26 -21z"/>
<path d="M2240 504 c0 -11 28 -52 31 -44 6 20 5 50 -2 50 -5 0 -9 -6 -9 -12 0
-9 -4 -8 -10 2 -5 8 -10 10 -10 4z"/>
<path d="M147 424 c-42 -35 -77 -67 -77 -71 0 -6 63 40 100 74 14 13 28 23 32
23 4 0 12 9 18 20 6 11 9 20 8 20 -2 -1 -38 -30 -81 -66z"/>
<path d="M584 459 c7 -38 -14 -79 -40 -79 -8 0 -14 -7 -14 -17 0 -15 1 -15 18
0 10 10 24 17 31 17 7 0 9 5 6 10 -3 6 -1 10 4 10 13 0 11 79 -2 87 -6 4 -7
-7 -3 -28z"/>
<path d="M500 472 c0 -7 -6 -12 -14 -12 -8 0 -18 -5 -21 -10 -4 -6 -1 -9 7 -8
10 2 13 -16 15 -75 1 -44 4 -82 7 -85 6 -5 9 44 4 51 -2 2 4 12 12 22 8 11 10
16 4 12 -15 -9 -24 79 -10 93 5 5 7 13 3 17 -4 3 -7 1 -7 -5z"/>
<path d="M2212 459 c-15 -23 -15 -29 -1 -29 10 0 39 24 39 33 0 15 -28 12 -38
-4z"/>
<path d="M821 436 c5 -17 9 -41 9 -54 0 -27 -51 -80 -70 -74 -8 3 -10 0 -6 -7
8 -12 47 -15 45 -3 -4 23 4 32 27 32 14 0 23 -4 20 -9 -10 -15 5 -41 23 -41
22 1 56 28 46 37 -4 5 -10 2 -12 -5 -4 -10 -8 -10 -19 -1 -10 8 -14 8 -14 0 0
-6 -5 -11 -11 -11 -6 0 -9 6 -6 13 2 6 0 20 -4 29 -5 9 -10 41 -10 71 -1 36
-6 54 -14 54 -9 0 -10 -8 -4 -31z"/>
<path d="M1484 458 c-4 -7 -7 -32 -5 -56 1 -25 -3 -50 -11 -59 -8 -11 -9 -14
-1 -10 9 5 11 -3 9 -30 -2 -37 -3 -38 -42 -38 -36 0 -39 -2 -40 -27 -1 -15 3
-25 7 -22 5 3 9 12 9 20 0 13 8 15 40 10 l40 -5 1 57 c0 31 2 83 4 115 3 59 2
66 -11 45z"/>
<path d="M2591 456 c-14 -8 -31 -12 -38 -9 -7 3 -13 -2 -13 -11 0 -16 15 -18
35 -3 5 4 19 14 30 22 25 18 18 18 -14 1z"/>
<path d="M756 430 c-21 -25 -24 -35 -16 -56 5 -13 9 -30 7 -36 -1 -6 5 -13 13
-15 9 -3 11 -1 5 4 -22 18 -4 113 21 113 8 0 14 5 14 10 0 19 -18 10 -44 -20z"/>
<path d="M1030 445 c0 -9 -5 -13 -11 -9 -8 5 -8 1 0 -14 6 -11 11 -34 11 -51
0 -16 4 -32 9 -36 9 -5 5 64 -4 73 -2 3 0 13 5 23 7 12 7 20 0 24 -5 3 -10 -1
-10 -10z"/>
<path d="M894 433 c3 -6 2 -14 -4 -18 -5 -3 -10 -1 -10 4 0 6 -4 11 -9 11 -15
0 -18 -47 -4 -71 l14 -24 -7 24 c-5 18 -1 28 17 42 20 15 22 20 10 31 -8 8
-11 8 -7 1z"/>
<path d="M1096 425 c4 -8 2 -15 -4 -15 -6 0 -13 6 -15 13 -4 7 -6 6 -6 -4 -1
-9 9 -19 20 -22 16 -4 20 -11 16 -26 -3 -12 -2 -19 3 -16 12 8 19 -48 8 -68
-5 -10 -7 -25 -4 -33 4 -9 -3 -18 -17 -24 -22 -10 -21 -10 3 -7 20 2 24 7 22
25 -1 13 2 31 8 40 7 14 10 11 16 -15 3 -18 10 -33 15 -33 5 0 4 12 -1 26 -6
14 -7 30 -4 36 4 6 -1 17 -10 24 -25 18 -17 58 12 62 12 2 20 7 17 12 -3 5 2
16 11 24 9 10 11 16 4 16 -7 0 -21 -11 -32 -25 -20 -26 -42 -29 -44 -7 -1 7
-2 17 -3 22 0 6 -5 10 -11 10 -5 0 -7 -7 -4 -15z"/>
<path d="M1368 420 c-7 -11 -21 -20 -30 -20 -20 0 -20 0 -22 -52 -1 -20 2 -34
7 -31 4 3 6 11 3 19 -3 7 -1 16 5 19 5 4 7 10 4 15 -3 4 1 10 8 13 9 3 12 -5
9 -32 l-3 -36 16 30 c9 16 14 37 12 46 -2 9 0 24 5 33 13 23 1 20 -14 -4z"/>
<path d="M1449 433 c-1 -5 -1 -11 -1 -14 1 -4 -12 -9 -28 -13 -23 -4 -30 -11
-30 -28 l1 -23 19 23 c10 13 27 24 38 25 18 1 29 37 11 37 -5 0 -10 -3 -10 -7z"/>
<path d="M2610 430 c0 -5 -11 -12 -25 -16 -14 -3 -25 -14 -26 -23 0 -12 -2
-12 -9 4 -7 17 -9 17 -9 3 -1 -10 -8 -18 -16 -18 -8 0 -19 -9 -25 -21 -11 -20
-11 -20 20 -4 17 9 36 13 42 9 7 -4 8 -3 4 4 -4 7 7 20 28 33 35 20 47 39 26
39 -5 0 -10 -4 -10 -10z"/>
<path d="M331 418 c-1 -17 -44 -64 -77 -84 -11 -7 -16 -15 -13 -18 3 -4 22 8
42 26 57 51 80 68 94 68 7 0 13 4 13 10 0 6 -9 6 -24 0 -17 -6 -26 -5 -30 3
-2 7 -5 5 -5 -5z"/>
<path d="M1519 390 c-1 -21 0 -90 1 -95 2 -3 3 -9 4 -14 4 -29 17 -20 15 9 -2
19 1 42 5 49 6 10 5 12 -2 7 -11 -7 -17 11 -13 42 1 6 -1 12 -4 12 -3 0 -5 -4
-6 -10z"/>
<path d="M695 379 c-4 -6 -12 -8 -19 -6 -6 3 -17 -2 -24 -9 -10 -11 -9 -13 7
-11 11 1 20 -2 21 -8 1 -5 6 -18 11 -27 5 -10 5 -18 -1 -21 -6 -3 -5 -4 2 -2
7 1 11 9 10 16 -12 46 -11 59 5 68 10 6 13 11 6 11 -6 0 -15 -5 -18 -11z"/>
<path d="M1895 342 c-12 -42 -11 -130 0 -126 6 3 9 22 7 44 -3 25 2 49 11 63
12 18 12 25 2 34 -10 9 -15 6 -20 -15z"/>
<path d="M1278 330 c-7 -11 -18 -20 -25 -20 -7 0 -13 -5 -13 -11 0 -6 7 -9 15
-5 8 3 15 0 15 -7 0 -7 5 -4 11 6 6 10 8 21 5 24 -3 4 -1 12 5 20 6 7 9 13 5
13 -3 0 -11 -9 -18 -20z"/>
<path d="M2026 337 c3 -8 1 -18 -5 -22 -6 -3 -8 -17 -5 -30 3 -13 0 -33 -6
-45 -8 -15 -8 -20 -1 -16 7 5 11 -2 11 -16 0 -17 -3 -19 -9 -9 -6 9 -12 -3
-20 -40 -7 -29 -17 -57 -24 -61 -8 -5 -7 -8 5 -8 12 0 19 12 24 45 4 28 11 45
20 45 10 0 14 15 15 53 1 28 1 55 0 60 0 4 4 7 10 7 5 0 8 4 4 9 -3 6 3 14 12
20 10 6 13 11 6 11 -6 0 -19 3 -27 6 -12 4 -15 2 -10 -9z"/>
<path d="M2562 329 c-7 -12 -11 -23 -8 -26 3 -3 8 2 12 11 7 17 34 22 34 6 0
-5 5 -10 12 -10 6 0 3 9 -7 20 -23 25 -27 25 -43 -1z"/>
<path d="M2680 337 c-30 -8 -46 -18 -48 -31 -2 -10 -16 -29 -30 -42 -30 -26
-51 -32 -32 -9 7 9 8 15 2 15 -13 0 -24 -29 -16 -42 4 -5 13 -3 23 6 10 9 21
13 26 9 4 -5 5 -3 2 3 -3 6 5 17 18 24 19 10 24 19 19 33 -5 16 -3 19 10 14 9
-4 16 -2 16 3 0 6 10 10 23 10 12 0 29 5 37 10 19 12 7 11 -50 -3z"/>
<path d="M2988 180 c-2 -88 0 -160 5 -160 4 0 7 72 7 160 0 88 -2 160 -5 160
-2 0 -5 -72 -7 -160z"/>
<path d="M285 310 c-4 -11 -10 -18 -14 -15 -5 2 -16 -4 -26 -15 -27 -30 -4
-24 35 8 21 18 29 31 23 35 -7 4 -14 -2 -18 -13z"/>
<path d="M370 320 c0 -7 -3 -10 -7 -7 -8 9 -43 -22 -43 -37 0 -6 5 -3 11 6 5
9 16 15 23 12 13 -5 31 24 21 34 -3 3 -5 -1 -5 -8z"/>
<path d="M420 295 c-19 -19 -31 -35 -27 -35 19 0 66 35 70 52 7 26 -3 22 -43
-17z"/>
<path d="M579 303 c-9 -10 -25 -24 -37 -32 -11 -8 -19 -19 -16 -23 3 -5 16 2
29 17 38 40 61 33 56 -17 -1 -10 2 -18 8 -18 6 0 9 20 8 45 -2 48 -5 52 -26
33 -11 -10 -13 -10 -7 0 10 17 3 15 -15 -5z"/>
<path d="M1031 297 c0 -12 3 -16 6 -9 4 10 8 10 19 1 8 -6 12 -15 9 -19 -3 -5
-1 -11 4 -14 14 -9 20 18 7 35 -6 8 -19 18 -28 22 -14 5 -18 1 -17 -16z"/>
<path d="M198 290 c-7 -11 -16 -20 -20 -20 -3 0 -26 -18 -49 -40 -24 -22 -39
-40 -34 -40 15 1 142 120 128 120 -7 0 -18 -9 -25 -20z"/>
<path d="M258 238 c-48 -40 -66 -69 -28 -46 11 7 20 18 20 25 0 7 9 13 20 13
17 0 48 36 38 45 -2 2 -24 -15 -50 -37z"/>
<path d="M367 263 c-12 -11 -8 -23 9 -23 8 0 13 -4 10 -9 -4 -5 -2 -11 3 -13
18 -7 23 -65 6 -82 -14 -14 -14 -16 -1 -16 8 0 18 5 21 11 5 6 11 4 19 -6 10
-15 12 -14 12 4 0 11 -3 18 -7 16 -7 -5 -29 39 -29 58 0 18 -36 68 -43 60z"/>
<path d="M1201 256 c-8 -10 -8 -16 3 -25 10 -8 16 -9 21 -1 3 6 11 8 16 5 5
-4 9 -1 9 5 0 7 -8 9 -22 5 -17 -6 -20 -4 -15 9 8 20 3 21 -12 2z"/>
<path d="M1849 240 c-12 -16 -26 -27 -31 -24 -4 3 -8 -5 -9 -18 0 -13 -2 -31
-4 -40 -5 -25 4 -22 15 5 6 12 21 41 34 65 28 49 26 55 -5 12z"/>
<path d="M204 246 c-3 -9 -11 -16 -18 -16 -11 0 -46 -34 -46 -45 0 -14 20 -2
25 15 3 11 12 20 19 20 17 0 41 28 33 37 -4 3 -9 -2 -13 -11z"/>
<path d="M772 218 c1 -26 5 -45 10 -42 4 3 5 16 2 30 -4 14 -2 24 5 24 6 0 11
5 11 11 0 5 -4 8 -9 5 -5 -4 -12 0 -15 6 -3 7 -4 -8 -4 -34z"/>
<path d="M2800 232 c0 -7 -14 -12 -32 -12 -37 0 -67 -15 -55 -27 5 -4 11 -3
15 2 4 6 21 11 37 13 32 4 53 17 42 29 -4 3 -7 1 -7 -5z"/>
<path d="M951 198 c-1 -29 34 -75 44 -58 3 5 -3 17 -14 27 -10 10 -21 27 -24
38 -4 15 -5 13 -6 -7z"/>
<path d="M1310 201 c0 -11 -3 -27 -6 -35 -4 -11 -2 -15 8 -11 15 6 21 65 6 65
-4 0 -8 -9 -8 -19z"/>
<path d="M2070 185 c0 -8 -4 -15 -9 -15 -5 0 -9 -16 -8 -35 1 -19 4 -32 8 -28
8 10 21 93 14 93 -3 0 -5 -7 -5 -15z"/>
<path d="M615 159 c-4 -6 -13 -8 -20 -5 -8 3 -12 -4 -12 -19 0 -17 4 -21 18
-18 23 6 47 33 30 33 -7 0 -9 5 -6 10 3 6 4 10 1 10 -3 0 -8 -5 -11 -11z"/>
<path d="M1850 140 c0 -14 -3 -36 -6 -50 -5 -24 -5 -24 7 -5 17 26 20 46 9 64
-8 13 -9 11 -10 -9z"/>
<path d="M0 63 c0 -13 153 -22 350 -22 85 1 243 -2 350 -5 107 -3 443 -9 745
-12 303 -3 568 -7 590 -9 22 -1 235 -6 473 -10 325 -6 432 -5 432 3 0 7 7 12
15 12 8 0 15 6 15 13 0 9 -63 12 -282 12 -156 0 -575 3 -933 8 -357 4 -899 10
-1202 13 -361 5 -553 3 -553 -3z m2897 -50 c-20 -2 -52 -2 -70 0 -17 2 0 4 38
4 39 0 53 -2 32 -4z"/>
</g>
</svg>
